<svg width="48" height="48" viewBox="0 0 48 48" fill="none" xmlns="http://www.w3.org/2000/svg">
<path opacity="0.2" d="M8.51203 33.1875C6.27869 29.4195 5.4975 24.9659 6.3151 20.6628C7.13271 16.3596 9.49289 12.5029 12.9526 9.8166C16.4122 7.13031 20.7334 5.7992 25.105 6.07316C29.4765 6.34713 33.5978 8.20733 36.695 11.3045C39.7922 14.4018 41.6524 18.523 41.9264 22.8945C42.2003 27.2661 40.8692 31.5873 38.1829 35.047C35.4966 38.5066 31.6399 40.8668 27.3368 41.6844C23.0336 42.502 18.58 41.7208 14.812 39.4875L8.58703 41.25C8.33199 41.3246 8.06158 41.3292 7.80414 41.2633C7.5467 41.1975 7.31172 41.0636 7.12382 40.8757C6.93592 40.6878 6.80203 40.4528 6.73618 40.1954C6.67032 39.9379 6.67494 39.6675 6.74953 39.4125L8.51203 33.1875Z" fill="#F5A92F"/>
<path d="M8.51203 33.1875C6.27869 29.4195 5.4975 24.9659 6.3151 20.6628C7.13271 16.3596 9.49289 12.5029 12.9526 9.8166C16.4122 7.13031 20.7334 5.7992 25.105 6.07316C29.4765 6.34713 33.5978 8.20733 36.695 11.3045C39.7922 14.4018 41.6524 18.523 41.9264 22.8945C42.2003 27.2661 40.8692 31.5873 38.1829 35.047C35.4966 38.5066 31.6399 40.8668 27.3368 41.6844C23.0336 42.502 18.58 41.7208 14.812 39.4875L8.58703 41.25C8.33199 41.3246 8.06158 41.3292 7.80414 41.2633C7.5467 41.1975 7.31172 41.0636 7.12382 40.8757C6.93592 40.6878 6.80203 40.4528 6.73618 40.1954C6.67032 39.9379 6.67494 39.6675 6.74953 39.4125L8.51203 33.1875Z" stroke="#F5A92F" stroke-width="3" stroke-linecap="round" stroke-linejoin="round"/>
<path d="M24 26.25C25.2426 26.25 26.25 25.2426 26.25 24C26.25 22.7574 25.2426 21.75 24 21.75C22.7574 21.75 21.75 22.7574 21.75 24C21.75 25.2426 22.7574 26.25 24 26.25Z" fill="#F5A92F"/>
<path d="M15 26.25C16.2426 26.25 17.25 25.2426 17.25 24C17.25 22.7574 16.2426 21.75 15 21.75C13.7574 21.75 12.75 22.7574 12.75 24C12.75 25.2426 13.7574 26.25 15 26.25Z" fill="#F5A92F"/>
<path d="M33 26.25C34.2426 26.25 35.25 25.2426 35.25 24C35.25 22.7574 34.2426 21.75 33 21.75C31.7574 21.75 30.75 22.7574 30.75 24C30.75 25.2426 31.7574 26.25 33 26.25Z" fill="#F5A92F"/>
</svg>
