<svg width="14" height="8" viewBox="0 0 14 8" fill="none" xmlns="http://www.w3.org/2000/svg">
<path fill-rule="evenodd" clip-rule="evenodd" d="M0.39374 0.182065C0.83293 -0.115582 1.46041 -0.0403995 1.79527 0.349991L6.78508 6.16741C6.90931 6.24051 7.09069 6.24051 7.21492 6.16741L12.2047 0.349991C12.5396 -0.0403995 13.1671 -0.115582 13.6063 0.182065C14.0454 0.479713 14.13 1.03748 13.7952 1.42787L8.78815 7.26536C8.72972 7.33348 8.64129 7.42775 8.51882 7.51796C7.64618 8.16068 6.35382 8.16068 5.48118 7.51796C5.35871 7.42775 5.27028 7.33348 5.21185 7.26536L0.204823 1.42787C-0.13003 1.03748 -0.0454491 0.479713 0.39374 0.182065Z" fill="white"/>
</svg>
