<svg width="13" height="8" viewBox="0 0 13 8" fill="none" xmlns="http://www.w3.org/2000/svg">
<path fill-rule="evenodd" clip-rule="evenodd" d="M12.6344 7.81794C12.2266 8.11558 11.6439 8.0404 11.333 7.65001L6.69957 1.83259C6.58421 1.75949 6.41579 1.75949 6.30043 1.83259L1.66703 7.65001C1.3561 8.0404 0.773434 8.11558 0.365616 7.81794C-0.0422033 7.52029 -0.120743 6.96252 0.190192 6.57213L4.83958 0.734644C4.89383 0.666523 4.97594 0.572248 5.08967 0.482042C5.89997 -0.160681 7.10003 -0.160681 7.91033 0.482042C8.02406 0.572248 8.10617 0.666523 8.16042 0.734644L12.8098 6.57213C13.1207 6.96252 13.0422 7.52029 12.6344 7.81794Z" fill="#F5A92F"/>
</svg>
