<svg width="86" height="76" viewBox="0 0 86 76" fill="none" xmlns="http://www.w3.org/2000/svg">
<path d="M74.8935 9.64912H64.8289L59.9422 2.30724C59.5103 1.6599 58.9251 1.12936 58.2387 0.762797C57.5522 0.396237 56.7858 0.205028 56.0076 0.206182H30.8265C30.0483 0.205028 29.2819 0.396237 28.5954 0.762797C27.909 1.12936 27.3238 1.6599 26.8919 2.30724L22.0013 9.64912H11.9406C9.01876 9.64912 6.21661 10.8098 4.15056 12.8759C2.08452 14.9419 0.923828 17.7441 0.923828 20.6659V64.7329C0.923828 67.6548 2.08452 70.4569 4.15056 72.523C6.21661 74.589 9.01876 75.7497 11.9406 75.7497H74.8935C76.3403 75.7497 77.7729 75.4648 79.1095 74.9111C80.4461 74.3575 81.6606 73.546 82.6836 72.523C83.7066 71.5 84.518 70.2855 85.0717 68.9489C85.6253 67.6123 85.9103 66.1797 85.9103 64.7329V20.6659C85.9103 19.2191 85.6253 17.7866 85.0717 16.45C84.518 15.1133 83.7066 13.8989 82.6836 12.8759C81.6606 11.8529 80.4461 11.0414 79.1095 10.4877C77.7729 9.93408 76.3403 9.64912 74.8935 9.64912ZM76.4674 64.7329C76.4674 65.1503 76.3015 65.5507 76.0064 65.8458C75.7112 66.141 75.3109 66.3068 74.8935 66.3068H11.9406C11.5232 66.3068 11.1229 66.141 10.8277 65.8458C10.5326 65.5507 10.3668 65.1503 10.3668 64.7329V20.6659C10.3668 20.2485 10.5326 19.8482 10.8277 19.553C11.1229 19.2579 11.5232 19.0921 11.9406 19.0921H24.5312C25.3094 19.0932 26.0758 18.902 26.7622 18.5354C27.4487 18.1689 28.0338 17.6383 28.4657 16.991L33.3525 9.64912H53.4777L58.3684 16.991C58.8003 17.6383 59.3855 18.1689 60.0719 18.5354C60.7584 18.902 61.5248 19.0932 62.3029 19.0921H74.8935C75.3109 19.0921 75.7112 19.2579 76.0064 19.553C76.3015 19.8482 76.4674 20.2485 76.4674 20.6659V64.7329ZM43.4171 22.2397C39.6818 22.2397 36.0304 23.3474 32.9246 25.4226C29.8189 27.4978 27.3982 30.4473 25.9688 33.8983C24.5394 37.3492 24.1654 41.1465 24.8941 44.81C25.6228 48.4735 27.4215 51.8387 30.0627 54.4799C32.704 57.1212 36.0691 58.9199 39.7326 59.6486C43.3961 60.3773 47.1934 60.0033 50.6444 58.5739C54.0953 57.1444 57.0449 54.7238 59.1201 51.618C61.1953 48.5123 62.3029 44.8609 62.3029 41.1256C62.2977 36.1183 60.3063 31.3177 56.7656 27.777C53.225 24.2363 48.4243 22.2449 43.4171 22.2397ZM43.4171 50.5685C41.5494 50.5685 39.7237 50.0147 38.1708 48.9771C36.618 47.9395 35.4076 46.4647 34.6929 44.7393C33.9782 43.0138 33.7912 41.1151 34.1556 39.2834C34.5199 37.4516 35.4193 35.769 36.7399 34.4484C38.0605 33.1278 39.7431 32.2285 41.5748 31.8641C43.4066 31.4997 45.3052 31.6867 47.0307 32.4015C48.7562 33.1162 50.231 34.3265 51.2686 35.8794C52.3062 37.4323 52.86 39.258 52.86 41.1256C52.86 43.63 51.8651 46.0319 50.0942 47.8028C48.3233 49.5737 45.9215 50.5685 43.4171 50.5685Z" fill="#00ACEE"/>
</svg>
