<svg width="18" height="19" viewBox="0 0 18 19" fill="none" xmlns="http://www.w3.org/2000/svg">
<path d="M1.5 4.25C1.5 3.85218 1.65804 3.47064 1.93934 3.18934C2.22064 2.90804 2.60218 2.75 3 2.75H7.5V16.25H3C2.60218 16.25 2.22064 16.092 1.93934 15.8107C1.65804 15.5294 1.5 15.1478 1.5 14.75V4.25ZM10.5 2.75H15C15.3978 2.75 15.7794 2.90804 16.0607 3.18934C16.342 3.47064 16.5 3.85218 16.5 4.25V8H10.5V2.75ZM10.5 11H16.5V14.75C16.5 15.1478 16.342 15.5294 16.0607 15.8107C15.7794 16.092 15.3978 16.25 15 16.25H10.5V11Z" stroke="#F5A92F" stroke-width="2" stroke-linecap="round" stroke-linejoin="round"/>
</svg>
