<svg width="18" height="21" viewBox="0 0 18 21" fill="none" xmlns="http://www.w3.org/2000/svg">
<path fill-rule="evenodd" clip-rule="evenodd" d="M1.23926 9.39128C1.25367 5.15069 4.70302 1.7247 8.94361 1.73906C13.1842 1.75351 16.6102 5.20287 16.5958 9.44345V9.53041C16.5436 12.2869 15.0045 14.8348 13.1175 16.8261C12.0384 17.9467 10.8333 18.9388 9.52621 19.7826C9.17672 20.0849 8.65832 20.0849 8.30882 19.7826C6.36033 18.5143 4.65019 16.9131 3.25665 15.0521C2.01461 13.4294 1.30942 11.4597 1.23926 9.41737V9.39128Z" stroke="#00ACEE" stroke-width="1.5" stroke-linecap="round" stroke-linejoin="round"/>
<path d="M8.9179 11.9999C10.277 11.9999 11.3788 10.8981 11.3788 9.53899C11.3788 8.17989 10.277 7.07812 8.9179 7.07812C7.5588 7.07812 6.45703 8.17989 6.45703 9.53899C6.45703 10.8981 7.5588 11.9999 8.9179 11.9999Z" stroke="#00ACEE" stroke-width="1.5" stroke-linecap="round" stroke-linejoin="round"/>
</svg>
