<svg width="18" height="19" viewBox="0 0 18 19" fill="none" xmlns="http://www.w3.org/2000/svg">
<path d="M8.7825 13.9925C7.62798 13.9379 6.53885 13.4407 5.74135 12.6041C4.94385 11.7675 4.49929 10.6558 4.5 9.5C4.5 7.0175 6.5175 5 9 5C11.415 5 13.38 6.8975 13.4925 9.2825L11.9175 8.81C11.7949 8.29009 11.5357 7.81234 11.1666 7.42616C10.7976 7.03997 10.3321 6.75935 9.81828 6.61331C9.30446 6.46727 8.76096 6.46111 8.24396 6.59546C7.72696 6.7298 7.25522 6.99979 6.87751 7.37751C6.49979 7.75522 6.2298 8.22696 6.09546 8.74396C5.96111 9.26096 5.96727 9.80446 6.11331 10.3183C6.25935 10.8321 6.53997 11.2976 6.92616 11.6666C7.31234 12.0357 7.79009 12.2949 8.31 12.4175L8.7825 13.9925ZM16.5 9.5C16.5 9.725 16.4925 9.95 16.47 10.175L14.9925 9.7325C15 9.6575 15 9.575 15 9.5C15 6.185 12.315 3.5 9 3.5C5.685 3.5 3 6.185 3 9.5C3 12.815 5.685 15.5 9 15.5C9.075 15.5 9.1575 15.5 9.2325 15.4925L9.675 16.97C9.45 16.9925 9.225 17 9 17C4.86 17 1.5 13.64 1.5 9.5C1.5 5.36 4.86 2 9 2C13.14 2 16.5 5.36 16.5 9.5ZM13.6725 12.695L15.375 12.125C15.72 12.0125 15.7125 11.5175 15.3675 11.4125L9.6675 9.7025C9.3825 9.62 9.1125 9.8825 9.2025 10.1675L10.9125 15.8675C11.0175 16.22 11.5125 16.2275 11.625 15.875L12.195 14.1725L15.1275 17.105C15.2775 17.255 15.51 17.255 15.66 17.105L16.6125 16.1525C16.7625 16.0025 16.7625 15.77 16.6125 15.62L13.6725 12.695Z" fill="#F5A92F"/>
</svg>
