<svg width="18" height="19" viewBox="0 0 18 19" fill="none" xmlns="http://www.w3.org/2000/svg">
<g clip-path="url(#clip0_183_2476)">
<path d="M13.5 8C13.5 6.80653 13.0259 5.66193 12.182 4.81802C11.3381 3.97411 10.1935 3.5 9 3.5C7.80653 3.5 6.66193 3.97411 5.81802 4.81802C4.97411 5.66193 4.5 6.80653 4.5 8V14H13.5V8ZM15 14.5002L15.3 14.9C15.3418 14.9557 15.3672 15.022 15.3735 15.0913C15.3797 15.1607 15.3666 15.2304 15.3354 15.2927C15.3043 15.355 15.2564 15.4074 15.1971 15.444C15.1379 15.4806 15.0696 15.5 15 15.5H3C2.93036 15.5 2.86209 15.4806 2.80285 15.444C2.74361 15.4074 2.69573 15.355 2.66459 15.2927C2.63345 15.2304 2.62026 15.1607 2.62652 15.0913C2.63277 15.022 2.65821 14.9557 2.7 14.9L3 14.5002V8C3 6.4087 3.63214 4.88258 4.75736 3.75736C5.88258 2.63214 7.4087 2 9 2C10.5913 2 12.1174 2.63214 13.2426 3.75736C14.3679 4.88258 15 6.4087 15 8V14.5002ZM7.125 16.25H10.875C10.875 16.7473 10.6775 17.2242 10.3258 17.5758C9.97419 17.9275 9.49728 18.125 9 18.125C8.50272 18.125 8.02581 17.9275 7.67417 17.5758C7.32254 17.2242 7.125 16.7473 7.125 16.25Z" fill="#F5A92F"/>
</g>
<defs>
<clipPath id="clip0_183_2476">
<rect width="18" height="18" fill="white" transform="translate(0 0.5)"/>
</clipPath>
</defs>
</svg>
