<svg width="32" height="32" viewBox="0 0 32 32" fill="none" xmlns="http://www.w3.org/2000/svg">
<path d="M8.57258 3.21743C8.74068 3.0168 8.82342 2.75825 8.80303 2.4973C8.78264 2.23635 8.66075 1.9938 8.46353 1.82171C8.26631 1.64962 8.00948 1.56172 7.74817 1.57687C7.48687 1.59203 7.24192 1.70903 7.06591 1.90276L5.34324 3.87609C4.36642 4.99552 3.81423 6.42272 3.78324 7.90809L3.70724 11.5334C3.70453 11.6647 3.72771 11.7953 3.77546 11.9177C3.8232 12.04 3.89458 12.1518 3.98552 12.2466C4.07646 12.3414 4.18518 12.4173 4.30547 12.4701C4.42575 12.5228 4.55526 12.5514 4.68658 12.5541C4.8179 12.5568 4.94847 12.5336 5.07083 12.4859C5.1932 12.4381 5.30496 12.3668 5.39974 12.2758C5.49452 12.1849 5.57045 12.0762 5.62322 11.9559C5.67598 11.8356 5.70453 11.7061 5.70725 11.5748L5.78191 7.95076C5.8033 6.9344 6.18134 5.95791 6.84991 5.19209L8.57258 3.21743Z" fill="#00ACEE"/>
<path fill-rule="evenodd" clip-rule="evenodd" d="M8.31658 10.2667C8.40613 8.84026 9.03594 7.50152 10.0778 6.52306C11.1197 5.54461 12.4953 4.99999 13.9246 5.00008H14.6673V4.00008C14.6673 3.64646 14.8077 3.30732 15.0578 3.05727C15.3078 2.80722 15.647 2.66675 16.0006 2.66675C16.3542 2.66675 16.6933 2.80722 16.9434 3.05727C17.1934 3.30732 17.3339 3.64646 17.3339 4.00008V5.00008H18.0766C19.5059 4.99999 20.8815 5.54461 21.9234 6.52306C22.9652 7.50152 23.595 8.84026 23.6846 10.2667L23.9792 14.9787C24.0915 16.7754 24.6948 18.5067 25.7233 19.9841C25.9357 20.2895 26.0656 20.6447 26.1001 21.0152C26.1347 21.3856 26.0728 21.7587 25.9204 22.0982C25.7681 22.4376 25.5305 22.7319 25.2308 22.9523C24.931 23.1727 24.5793 23.3118 24.2099 23.3561L19.6673 23.9001V25.3334C19.6673 26.3059 19.2809 27.2385 18.5933 27.9261C17.9057 28.6138 16.973 29.0001 16.0006 29.0001C15.0281 29.0001 14.0955 28.6138 13.4079 27.9261C12.7202 27.2385 12.3339 26.3059 12.3339 25.3334V23.9001L7.79125 23.3547C7.42204 23.3104 7.07059 23.1712 6.77104 22.9509C6.47149 22.7305 6.23403 22.4365 6.08172 22.0972C5.92941 21.758 5.86743 21.3851 5.90181 21.0148C5.93619 20.6446 6.06576 20.2895 6.27792 19.9841C7.30632 18.5067 7.90955 16.7753 8.02192 14.9787L8.31658 10.2681V10.2667ZM13.9246 7.00008C13.004 6.99997 12.118 7.35071 11.447 7.98089C10.7759 8.61107 10.3702 9.47332 10.3126 10.3921L10.0193 15.1041C9.88371 17.2654 9.15781 19.3481 7.92058 21.1254C7.90521 21.1475 7.89581 21.1732 7.8933 21.2C7.89079 21.2268 7.89525 21.2538 7.90626 21.2783C7.91726 21.3029 7.93443 21.3242 7.9561 21.3401C7.97777 21.3561 8.0032 21.3662 8.02992 21.3694L13.0126 21.9681C14.9979 22.2054 17.0033 22.2054 18.9886 21.9681L23.9713 21.3694C23.998 21.3662 24.0234 21.3561 24.0451 21.3401C24.0667 21.3242 24.0839 21.3029 24.0949 21.2783C24.1059 21.2538 24.1104 21.2268 24.1079 21.2C24.1054 21.1732 24.096 21.1475 24.0806 21.1254C22.8438 19.348 22.1183 17.2653 21.9832 15.1041L21.6886 10.3921C21.6309 9.47332 21.2253 8.61107 20.5542 7.98089C19.8832 7.35071 18.9972 6.99997 18.0766 7.00008H13.9246ZM16.0006 27.0001C15.0806 27.0001 14.3339 26.2534 14.3339 25.3334V24.3334H17.6673V25.3334C17.6673 26.2534 16.9206 27.0001 16.0006 27.0001Z" fill="#00ACEE"/>
<path d="M23.524 1.80669C23.3243 1.98105 23.202 2.22761 23.184 2.49214C23.1659 2.75668 23.2537 3.01754 23.428 3.21735L25.1507 5.19069C25.8191 5.95704 26.1966 6.93403 26.2174 7.95069L26.2934 11.5734C26.2988 11.8386 26.4095 12.0907 26.6009 12.2744C26.7923 12.4581 27.0488 12.5582 27.314 12.5527C27.5792 12.5472 27.8314 12.4366 28.0151 12.2452C28.1987 12.0538 28.2988 11.7972 28.2934 11.532L28.2174 7.90802C28.1864 6.42265 27.6342 4.99544 26.6574 3.87602L24.9347 1.90269C24.7603 1.70294 24.5138 1.58061 24.2492 1.56261C23.9847 1.54461 23.7238 1.6324 23.524 1.80669Z" fill="#00ACEE"/>
</svg>
