<svg width="813" height="606" viewBox="0 0 813 606" fill="none" xmlns="http://www.w3.org/2000/svg">
<path d="M813 532.352H0V532.84H813V532.352Z" fill="#D1E3FF"/>
<path d="M724.545 544.71H679.18V545.198H724.545V544.71Z" fill="#D1E3FF"/>
<path d="M453.817 544.71H416.582V545.198H453.817V544.71Z" fill="#D1E3FF"/>
<path d="M369.589 551.702H235.119V552.19H369.589V551.702Z" fill="#D1E3FF"/>
<path d="M187.965 548.938H108.779V549.425H187.965V548.938Z" fill="#D1E3FF"/>
<path d="M663.409 544.71H524.711V545.198H663.409V544.71Z" fill="#D1E3FF"/>
<path d="M95.4469 548.938H83.9023V549.425H95.4469V548.938Z" fill="#D1E3FF"/>
<path d="M385.362 459.833H71.3815C66.3409 459.833 62.1133 455.605 62.1133 450.565V9.2682C62.1133 4.2276 66.3409 0 71.3815 0H385.362C390.403 0 394.63 4.2276 394.63 9.2682V450.565C394.63 455.605 390.565 459.833 385.362 459.833ZM71.3815 0.325201C66.5035 0.325201 62.4385 4.2276 62.4385 9.2682V450.565C62.4385 455.443 66.3409 459.508 71.3815 459.508H385.362C390.24 459.508 394.305 455.605 394.305 450.565V9.2682C394.305 4.3902 390.403 0.325201 385.362 0.325201H71.3815Z" fill="#D1E3FF"/>
<path d="M737.065 459.833H423.085C418.044 459.833 413.816 455.605 413.816 450.565V9.2682C413.816 4.2276 418.044 0 423.085 0H737.065C742.106 0 746.333 4.2276 746.333 9.2682V450.565C746.333 455.605 742.268 459.833 737.065 459.833ZM423.085 0.325201C418.207 0.325201 414.142 4.2276 414.142 9.2682V450.565C414.142 455.443 418.044 459.508 423.085 459.508H737.065C741.943 459.508 746.008 455.605 746.008 450.565V9.2682C746.008 4.3902 742.106 0.325201 737.065 0.325201H423.085Z" fill="#D1E3FF"/>
<path d="M555.604 373.33C554.628 373.33 553.815 373.33 552.84 373.492C533.815 374.793 518.368 390.24 517.068 409.427C516.742 413.817 517.23 418.045 518.368 421.947C522.759 438.207 524.385 455.117 524.385 472.028V521.296C524.385 524.873 527.311 527.8 530.889 527.8H555.604H580.319H687.31V373.492H555.604V373.33Z" fill="#E3EEFF"/>
<path d="M725.847 411.866C725.847 389.752 707.148 371.866 684.709 373.492C665.685 374.793 650.238 390.24 648.937 409.427C648.612 413.817 649.099 418.045 650.238 421.947C654.628 438.207 656.254 455.117 656.254 472.028V521.296C656.254 524.873 659.181 527.8 662.758 527.8H712.026C715.603 527.8 718.53 524.873 718.53 521.296V469.101C718.53 453.329 720.318 437.394 724.546 422.11C725.359 418.858 725.847 415.443 725.847 411.866Z" fill="#F3F8FF"/>
<path d="M634.304 433.979H415.119V527.637H634.304V433.979Z" fill="#E3EEFF"/>
<path d="M536.582 321.785H328.291C312.194 321.785 299.186 334.793 299.186 350.891V455.117H565.85V350.891C565.85 334.793 552.679 321.785 536.582 321.785Z" fill="#CADEFC"/>
<path d="M574.792 321.785H363.574C348.29 321.785 335.77 334.143 335.77 349.59V455.28H602.434V349.59C602.434 334.143 590.076 321.785 574.792 321.785Z" fill="#F3F8FF"/>
<path d="M632.515 425.362H424.387C422.923 425.362 421.785 426.5 421.785 427.963V461.134C421.785 462.597 422.923 463.735 424.387 463.735H632.515C637.23 463.735 640.97 459.995 640.97 455.28V433.979C640.97 429.264 637.068 425.362 632.515 425.362Z" fill="#CADEFC"/>
<path d="M285.364 373.33C284.388 373.33 283.575 373.33 282.599 373.492C263.575 374.793 248.128 390.24 246.827 409.427C246.502 413.817 246.99 418.045 248.128 421.947C252.518 438.207 254.144 455.117 254.144 472.028V521.296C254.144 524.873 257.071 527.8 260.648 527.8H285.364H310.079H417.07V373.492H285.364V373.33Z" fill="#E3EEFF"/>
<path d="M455.442 411.866C455.442 389.752 436.743 371.866 414.304 373.492C395.28 374.793 379.833 390.24 378.532 409.427C378.207 413.817 378.695 418.045 379.833 421.947C384.223 438.207 385.849 455.117 385.849 472.028V521.296C385.849 524.873 388.776 527.8 392.353 527.8H441.621C445.199 527.8 448.125 524.873 448.125 521.296V469.101C448.125 453.329 449.914 437.394 454.141 422.11C454.954 418.858 455.442 415.443 455.442 411.866Z" fill="#F3F8FF"/>
<path d="M684.546 532.352H288.127C285.526 532.352 283.412 530.239 283.412 527.637H689.262C689.262 530.239 687.148 532.352 684.546 532.352Z" fill="#CADEFC"/>
<path d="M121.787 415.28H78.373V525.361H121.787V415.28Z" fill="#E3EEFF"/>
<path d="M301.135 525.361H86.8281V532.352H301.135V525.361Z" fill="#E3EEFF"/>
<path d="M121.832 525.412H309.473V415.332H121.832V525.412Z" fill="#F3F8FF"/>
<path d="M139.069 464.883H292.4V428.785H139.069V464.883Z" fill="#E3EEFF"/>
<path d="M139.069 511.794H292.4V475.697H139.069V511.794Z" fill="#E3EEFF"/>
<path d="M234.631 432.191H196.746C195.445 432.191 194.307 431.053 194.307 429.752C194.307 428.451 195.445 427.313 196.746 427.313H234.794C236.095 427.313 237.233 428.451 237.233 429.752C237.233 431.053 236.095 432.191 234.631 432.191Z" fill="#F3F8FF"/>
<path d="M234.631 479.02H196.746C195.445 479.02 194.307 477.881 194.307 476.581C194.307 475.28 195.445 474.142 196.746 474.142H234.794C236.095 474.142 237.233 475.28 237.233 476.581C237.233 478.044 236.095 479.02 234.631 479.02Z" fill="#F3F8FF"/>
<path d="M554.954 35.6094H249.104V255.282H554.954V35.6094Z" fill="#D1E3FF"/>
<path d="M560.158 35.6094H251.543V255.282H560.158V35.6094Z" fill="#F3F8FF"/>
<path d="M554.954 255.445H249.104V260.323H554.954V255.445Z" fill="#D1E3FF"/>
<path d="M583.571 255.445H286.176V260.323H583.571V255.445Z" fill="#F3F8FF"/>
<path d="M552.928 246.097V44.9609L258.622 44.9609L258.622 246.097L552.928 246.097Z" fill="#F5FCFF"/>
<path d="M338.695 246.014L380.809 45.0403H434.629L392.516 246.014H338.695Z" fill="white"/>
<path d="M407.639 246.014L449.752 45.0403H474.63L432.516 246.014H407.639Z" fill="white"/>
<path d="M552.84 225.024V43.7249H551.864V225.024H552.84Z" fill="#D1E3FF"/>
<path d="M243.736 35.2843V113.495H264.387C264.387 113.495 301.622 89.2675 310.077 39.3493C310.89 34.3087 306.988 29.5933 301.947 29.5933H249.427C246.175 29.7559 243.736 32.1949 243.736 35.2843Z" fill="#D1E3FF"/>
<path d="M243.736 239.022V119.999H264.387C264.387 119.999 276.256 144.064 288.126 171.706C301.785 203.413 278.37 239.022 243.736 239.022Z" fill="#D1E3FF"/>
<path d="M263.737 119.836H244.387C243.249 119.836 242.273 118.861 242.273 117.722V115.609C242.273 114.47 243.249 113.495 244.387 113.495H263.737C264.875 113.495 265.85 114.47 265.85 115.609V117.722C265.85 119.023 264.875 119.836 263.737 119.836Z" fill="#F3F8FF"/>
<path d="M566.011 35.2843V113.495H545.361C545.361 113.495 508.125 89.2675 499.67 39.3493C498.857 34.3087 502.759 29.5933 507.8 29.5933H560.32C563.409 29.7559 566.011 32.1949 566.011 35.2843Z" fill="#D1E3FF"/>
<path d="M566.011 239.022V119.999H545.361C545.361 119.999 533.491 144.064 521.621 171.706C507.8 203.413 531.214 239.022 566.011 239.022Z" fill="#D1E3FF"/>
<path d="M545.848 119.836H565.198C566.336 119.836 567.311 118.861 567.311 117.722V115.609C567.311 114.47 566.336 113.495 565.198 113.495H545.848C544.71 113.495 543.734 114.47 543.734 115.609V117.722C543.734 119.023 544.71 119.836 545.848 119.836Z" fill="#F3F8FF"/>
<path d="M714.465 60.6499H612.84V212.356H714.465V60.6499Z" fill="#D1E3FF"/>
<path d="M729.099 60.6499H615.441V212.356H729.099V60.6499Z" fill="#F3F8FF"/>
<path d="M717.492 200.65V72.3586L627.249 72.3586V200.65L717.492 200.65Z" fill="white"/>
<path d="M663.734 148.779V141.462C663.734 131.869 671.539 124.227 680.97 124.227V131.544C680.97 141.137 673.165 148.779 663.734 148.779Z" fill="#D1E3FF"/>
<path d="M663.734 183.413V176.096C663.734 166.503 671.539 158.86 680.97 158.86V166.177C680.97 175.608 673.165 183.413 663.734 183.413Z" fill="#D1E3FF"/>
<path d="M663.734 114.308V106.991C663.734 97.3976 671.539 89.7554 680.97 89.7554V97.0724C680.97 106.503 673.165 114.308 663.734 114.308Z" fill="#D1E3FF"/>
<path d="M148.129 386.175C152.194 343.574 155.934 224.876 153.495 203.575L147.804 199.348C147.804 199.348 149.593 276.908 146.503 342.11C143.414 407.313 146.016 376.582 144.715 386.175H148.129Z" fill="#D1E3FF"/>
<path d="M164.064 301.46C175.609 292.517 199.023 286.013 222.925 286.013C232.356 286.013 194.47 296.42 178.698 307.964C166.503 316.907 152.682 332.029 147.967 340.484C150.894 322.924 152.52 310.566 164.064 301.46Z" fill="#D1E3FF"/>
<path d="M141.3 314.794C131.706 305.363 109.755 298.208 86.0157 297.395C76.7475 297.07 112.194 308.777 125.527 320.972C135.771 330.403 146.34 345.85 149.267 354.468C149.917 336.745 150.893 324.224 141.3 314.794Z" fill="#D1E3FF"/>
<path d="M164.551 238.046C174.307 230.404 194.145 225.038 214.307 225.038C222.274 225.038 190.08 233.981 176.746 243.737C166.34 251.38 154.633 264.062 150.73 271.217C153.332 256.095 154.795 245.526 164.551 238.046Z" fill="#D1E3FF"/>
<path d="M145.365 249.266C137.235 241.298 118.699 235.282 98.5365 234.469C90.5691 234.144 120.65 244.225 132.032 254.306C140.812 262.274 149.755 275.444 152.194 282.599C152.52 267.802 153.333 257.233 145.365 249.266Z" fill="#D1E3FF"/>
<path d="M149.918 191.218C144.227 184.714 130.244 179.185 114.959 177.884C108.943 177.397 131.382 186.34 139.349 194.632C145.528 201.136 151.707 211.705 153.17 217.234C154.471 205.689 155.772 197.559 149.918 191.218Z" fill="#D1E3FF"/>
<path d="M153.657 195.445C157.885 189.917 167.641 185.039 178.535 183.738C182.763 183.25 166.828 191.055 160.974 198.372C156.422 203.9 152.031 213.006 150.893 217.884C150.243 207.965 149.592 200.973 153.657 195.445Z" fill="#D1E3FF"/>
<path d="M147.316 415.28C159.836 415.28 170.242 405.524 171.055 393.004L173.169 373.004H121.625L123.739 393.004C124.389 405.524 134.796 415.28 147.316 415.28Z" fill="#E3EEFF"/>
<path d="M118.21 381.297H176.421L178.209 366.175H116.584L118.21 381.297Z" fill="#E3EEFF"/>
<path d="M406.5 605.685C580.625 605.685 721.782 597.459 721.782 587.311C721.782 577.164 580.625 568.938 406.5 568.938C232.375 568.938 91.2188 577.164 91.2188 587.311C91.2188 597.459 232.375 605.685 406.5 605.685Z" fill="#F0F6FF"/>
<path d="M407.801 560.482L396.744 556.092L403.899 529.426L414.955 533.816L407.801 560.482Z" fill="#FFC3BD"/>
<path d="M518.533 572.677H506.663L497.395 545.198H509.264L518.533 572.677Z" fill="#FFC3BD"/>
<path d="M505.037 571.377H519.508C519.996 571.377 520.484 571.702 520.484 572.19L522.76 582.759C522.923 583.897 522.11 584.872 520.971 584.872C516.256 584.872 513.004 584.547 507.15 584.547C503.573 584.547 492.679 584.872 487.638 584.872C482.76 584.872 481.947 579.994 484.061 579.507C493.167 577.555 499.996 574.791 502.923 572.19C503.573 571.539 504.386 571.377 505.037 571.377Z" fill="#14365B"/>
<path d="M397.395 554.791L409.428 559.507C409.916 559.669 410.078 560.157 410.078 560.645L408.452 571.377C408.29 572.515 407.151 573.165 406.013 572.677C401.623 570.889 395.607 568.125 390.078 566.011C383.737 563.409 378.046 561.621 370.566 558.694C366.014 556.905 366.664 551.865 368.615 552.19C378.046 553.653 385.038 556.255 394.306 554.629C395.444 554.466 396.42 554.466 397.395 554.791Z" fill="#14365B"/>
<path d="M479.508 216.258C478.37 217.071 477.557 217.721 476.582 218.534C475.606 219.185 474.63 219.835 473.655 220.648C471.704 221.949 469.752 223.25 467.801 224.551C463.736 226.99 459.509 229.266 455.118 231.217C450.728 233.168 446.013 234.794 440.972 235.933C435.932 237.071 430.566 237.559 424.875 236.746C423.411 236.583 422.111 236.258 420.485 235.77C417.395 234.794 415.607 233.168 414.306 231.868C411.704 229.103 410.566 226.664 409.428 224.388C407.151 219.673 405.851 215.282 404.712 210.73C402.436 201.787 401.135 193.006 400.322 183.901L409.103 182.275C411.867 190.405 414.631 198.697 417.72 206.502C419.346 210.404 420.972 214.144 422.924 217.234C423.899 218.697 424.875 220.16 425.525 220.486C425.688 220.648 425.85 220.486 424.875 220.16C425.363 220.16 426.176 220.323 426.989 220.486C429.915 220.648 433.493 220.16 437.07 219.185C440.647 218.209 444.224 216.746 447.801 214.957C451.379 213.169 454.956 211.217 458.37 209.104C460.159 207.965 461.785 206.99 463.574 205.852L466.013 204.063C466.826 203.575 467.801 202.925 468.289 202.437L479.508 216.258Z" fill="#FFC3BD"/>
<path d="M486.988 213.331C484.062 224.225 448.615 236.583 448.615 236.583L437.721 211.868C437.721 211.868 452.192 204.226 465.525 198.209C474.306 194.307 490.078 201.461 486.988 213.331Z" fill="#00ACEE"/>
<path d="M409.264 183.901L409.59 173.332L396.744 177.072C396.744 177.072 396.907 182.6 401.622 186.177L409.264 183.901Z" fill="#FFC3BD"/>
<path d="M410.078 166.015L397.72 170.242L396.582 177.234L409.427 173.494L410.078 166.015Z" fill="#FFC3BD"/>
<path d="M407.802 191.055L419.997 188.291C420.81 188.128 421.298 187.315 420.973 186.502L410.404 158.21C410.079 157.397 409.103 156.909 408.29 157.072L396.095 159.836C395.282 159.998 394.794 160.811 395.119 161.624L405.688 189.917C406.014 190.73 406.989 191.38 407.802 191.055Z" fill="#0053CC"/>
<path d="M409.265 190.73L421.46 187.966C422.273 187.803 422.761 186.99 422.436 186.177L411.867 157.885C411.542 157.072 410.566 156.584 409.753 156.746L397.558 159.511C396.745 159.673 396.257 160.486 396.582 161.299L407.151 189.592C407.477 190.405 408.452 190.892 409.265 190.73Z" fill="#00ACEE"/>
<path d="M396.908 162.438L401.624 175.12L402.111 176.259L404.225 181.95L404.713 183.088L406.502 187.641L421.623 184.389L421.298 183.25L420.81 181.95L416.745 171.055L415.445 167.641L412.193 159.023L407.152 160.161L405.851 160.324L399.022 161.95L397.884 162.112L396.908 162.438Z" fill="#DCE9FF"/>
<path d="M406.828 167.478L405.527 177.884C405.364 178.697 406.177 179.348 406.99 179.185L415.283 177.234C416.096 177.071 416.584 175.933 415.933 175.283L408.941 166.665C408.291 166.015 406.99 166.502 406.828 167.478Z" fill="#00ACEE"/>
<path d="M411.216 175.608C411.379 176.258 411.216 176.746 410.728 176.746C410.241 176.909 409.753 176.421 409.59 175.933C409.428 175.445 409.59 174.795 410.078 174.795C410.566 174.632 411.054 175.12 411.216 175.608Z" fill="white"/>
<path d="M410.241 173.819L409.591 173.982C409.428 173.982 409.266 173.819 409.266 173.657L407.965 169.917C407.965 169.754 407.965 169.429 408.127 169.429L409.266 169.104C409.428 169.104 409.591 169.267 409.591 169.429L410.566 173.332C410.566 173.657 410.404 173.819 410.241 173.819Z" fill="white"/>
<path d="M403.899 529.426L400.322 543.247L411.216 547.474L414.956 533.816L403.899 529.426Z" fill="#F29994"/>
<path d="M509.264 545.198H497.395L502.11 559.344H513.98L509.264 545.198Z" fill="#F29994"/>
<path d="M534.792 208.453C529.751 221.136 526.011 234.144 523.084 246.339C520.971 255.282 519.345 264.062 518.044 271.867C515.117 290.241 513.979 304.387 512.841 309.103C503.735 307.477 469.264 301.298 450.402 297.883C449.101 229.917 469.264 197.234 469.264 197.234C469.264 197.234 476.418 196.584 484.548 197.071C485.686 197.071 486.662 197.234 487.8 197.234C494.955 197.884 506.499 200.161 514.304 201.949C515.93 202.275 517.719 202.762 519.182 203.25C527.637 205.527 534.792 208.453 534.792 208.453Z" fill="#00ACEE"/>
<path d="M517.069 223.575C515.931 234.144 517.882 243.25 521.947 251.705C522.272 249.916 522.76 248.128 523.085 246.339C524.711 239.51 526.5 232.518 528.776 225.526L517.069 223.575Z" fill="#2B6AD8"/>
<path d="M517.069 171.706C513.817 179.998 509.427 195.283 514.305 201.949C509.102 205.689 501.947 208.291 492.354 206.34C485.037 204.876 485.525 199.673 487.801 197.071C497.72 196.584 498.695 189.429 498.208 182.437L517.069 171.706Z" fill="#FFC3BD"/>
<path d="M509.426 176.096L498.369 182.6C498.532 184.226 498.532 185.852 498.369 187.478C502.109 187.641 507.8 184.551 508.938 180.811C509.426 178.86 509.589 177.072 509.426 176.096Z" fill="#F29994"/>
<path d="M488.29 143.738C485.688 148.942 484.55 165.364 491.867 162.925C499.184 160.486 498.859 147.966 498.859 147.966C498.859 147.966 494.306 131.381 488.29 143.738Z" fill="#0F264C"/>
<path d="M520.483 159.023C517.719 170.405 516.581 177.234 509.751 182.112C499.345 189.429 486.012 181.624 485.361 169.592C484.711 158.698 489.426 141.95 501.459 139.348C513.491 136.909 523.247 147.641 520.483 159.023Z" fill="#FFC3BD"/>
<path d="M514.63 149.755C507.964 153.82 509.102 166.828 518.37 170.242C527.638 173.657 529.589 166.99 528.126 166.177C531.378 165.527 543.898 159.836 538.858 149.755C535.768 143.576 526.663 144.552 526.663 144.552C526.663 144.552 537.557 133.82 520.321 125.202C499.346 114.633 496.094 133.983 496.094 133.983C496.094 133.983 482.598 132.519 483.736 141.462C485.2 153.332 497.882 143.901 497.882 143.901C497.882 143.901 498.695 154.47 514.63 149.755Z" fill="#0F264C"/>
<path d="M496.743 138.535C496.418 138.535 496.255 138.373 496.093 138.048C495.93 137.722 493.003 129.105 497.556 123.576C500.483 119.999 505.686 118.536 513.166 119.186C513.491 119.186 513.816 119.511 513.654 119.836C513.654 120.162 513.328 120.487 513.003 120.324C506.011 119.674 501.133 120.975 498.532 124.227C494.467 129.267 497.231 137.56 497.394 137.56C497.556 137.885 497.394 138.21 497.068 138.373C496.906 138.535 496.906 138.535 496.743 138.535Z" fill="#0F264C"/>
<path d="M523.411 172.681C521.297 175.12 518.208 176.258 515.606 176.258C511.704 176.421 510.566 172.681 512.517 169.429C514.143 166.502 518.208 162.925 521.785 164.389C525.362 165.852 525.85 169.917 523.411 172.681Z" fill="#FFC3BD"/>
<path d="M397.07 539.019L415.769 546.336C415.769 546.336 437.558 473.979 444.875 437.882C447.151 426.825 451.704 411.703 457.232 395.606C464.224 375.281 472.517 353.33 479.183 336.094C486.175 318.046 491.541 305.2 491.541 305.2L450.566 297.883C450.566 297.883 414.956 392.842 409.753 428.614C404.55 465.849 397.07 539.019 397.07 539.019Z" fill="#9FC6FF"/>
<path d="M457.395 395.606C464.386 375.281 472.679 353.33 479.346 336.094L476.094 326.338C464.386 337.558 457.557 374.956 457.395 395.606Z" fill="#77B3FC"/>
<path d="M472.68 301.948C472.68 301.948 466.176 403.248 467.477 437.882C468.94 475.93 496.582 556.58 496.582 556.58H518.208C518.208 556.58 504.224 483.898 501.297 446.988C498.045 404.874 512.842 309.103 512.842 309.103L472.68 301.948Z" fill="#9FC6FF"/>
<path d="M493.98 557.068H519.508V549.426L490.891 548.938L493.98 557.068Z" fill="#00ACEE"/>
<path d="M394.631 538.531L416.907 547.312L419.671 540.157L394.956 529.914L394.631 538.531Z" fill="#00ACEE"/>
<path d="M502.435 159.186C502.272 160.161 501.622 160.812 500.972 160.649C500.321 160.486 499.996 159.673 500.159 158.698C500.321 157.722 500.972 157.072 501.622 157.234C502.11 157.397 502.598 158.21 502.435 159.186Z" fill="#0F264C"/>
<path d="M491.703 157.234C491.54 158.21 490.89 158.86 490.239 158.698C489.589 158.535 489.264 157.722 489.426 156.747C489.589 155.771 490.239 155.121 490.89 155.283C491.54 155.446 491.865 156.259 491.703 157.234Z" fill="#0F264C"/>
<path d="M494.956 158.21C494.956 158.21 491.866 163.251 488.939 165.527C490.403 167.316 493.33 167.153 493.33 167.153L494.956 158.21Z" fill="#ED847E"/>
<path d="M500.158 173.82C499.996 173.82 499.833 173.657 499.833 173.657C499.833 173.494 499.833 173.332 499.996 173.332C501.622 173.007 501.622 172.681 501.622 172.681C501.622 172.681 500.971 171.706 497.231 171.543C497.069 171.543 496.906 171.381 496.906 171.218C496.906 171.055 497.069 170.893 497.231 170.893C500.971 171.055 501.784 172.031 502.109 172.356C502.272 172.519 502.272 172.681 502.272 172.844C502.272 173.169 501.622 173.494 500.158 173.82Z" fill="#0F264C"/>
<path d="M506.337 156.259C506.174 156.259 506.012 156.096 505.849 155.934C504.711 153.657 502.76 153.495 502.597 153.495C502.272 153.495 502.109 153.169 502.109 152.844C502.109 152.519 502.435 152.356 502.76 152.356C502.922 152.356 505.361 152.682 506.825 155.446C506.987 155.771 506.825 156.096 506.5 156.259H506.337Z" fill="#0F264C"/>
<path d="M487.802 152.682C487.639 152.682 487.639 152.682 487.476 152.519C487.151 152.356 487.151 152.031 487.314 151.706C489.102 149.267 491.704 149.267 491.867 149.267C492.192 149.267 492.354 149.592 492.354 149.917C492.354 150.243 492.192 150.405 491.704 150.405C491.704 150.405 489.59 150.405 488.127 152.356C488.127 152.682 487.964 152.682 487.802 152.682Z" fill="#0F264C"/>
<path d="M501.134 573.328C500.158 573.328 499.345 573.165 498.857 572.677C498.37 572.352 498.207 571.864 498.207 571.214C498.207 570.726 498.532 570.564 498.695 570.401C499.996 569.751 503.898 572.027 504.223 572.352C504.386 572.352 504.386 572.515 504.386 572.677C504.386 572.84 504.223 572.84 504.223 572.84C503.41 573.165 502.272 573.328 501.134 573.328ZM499.345 570.889C499.183 570.889 499.02 570.889 499.02 570.889C499.02 570.889 498.857 571.051 498.857 571.214C498.857 571.702 499.02 572.027 499.183 572.19C499.833 572.677 501.296 572.84 503.41 572.352C502.109 571.864 500.321 570.889 499.345 570.889Z" fill="#00ACEE"/>
<path d="M504.223 573.002C504.061 573.002 504.061 573.002 504.223 573.002C502.923 572.352 500.484 569.751 500.809 568.45C500.809 568.287 500.971 567.799 501.622 567.637C502.11 567.637 502.435 567.637 502.76 567.962C504.061 569.1 504.386 572.515 504.386 572.677C504.386 572.84 504.386 572.84 504.223 573.002ZM501.784 568.124C501.297 568.124 501.297 568.287 501.297 568.45C501.134 569.263 502.597 571.214 503.898 572.189C503.736 571.214 503.41 569.263 502.435 568.45C502.272 568.287 501.947 568.124 501.784 568.124Z" fill="#00ACEE"/>
<path d="M395.769 555.93C393.818 555.604 390.403 554.791 389.753 553.165C389.59 552.678 389.59 552.19 389.753 551.702C389.915 551.377 390.078 551.214 390.403 551.214H390.566C392.192 551.214 395.606 554.954 395.932 555.442C395.932 555.604 396.094 555.604 395.932 555.767C395.932 555.929 395.769 555.93 395.769 555.93ZM390.566 551.865C390.403 551.865 390.403 551.865 390.566 551.865C390.403 551.865 390.241 552.027 390.241 552.027C390.078 552.352 390.078 552.678 390.241 553.003C390.728 553.816 392.517 554.629 395.119 555.279C393.493 553.653 391.379 551.865 390.566 551.865Z" fill="#00ACEE"/>
<path d="M395.769 555.93C395.769 555.93 395.606 555.93 395.606 555.767C394.468 554.629 392.842 551.214 393.492 550.076C393.655 549.751 393.98 549.588 394.793 549.751C395.281 549.913 395.769 550.239 396.094 550.726C397.07 552.352 396.094 555.442 396.094 555.604C395.931 555.767 395.931 555.93 395.769 555.93ZM394.143 550.239C393.98 550.239 393.818 550.401 393.818 550.401C393.33 551.052 394.468 553.653 395.444 554.954C395.606 553.978 395.931 552.027 395.281 551.052C395.118 550.726 394.793 550.401 394.305 550.239C394.468 550.239 394.305 550.239 394.143 550.239Z" fill="#00ACEE"/>
<path d="M535.117 213.982C536.743 215.771 538.044 217.397 539.345 219.185C540.646 220.974 541.947 222.762 543.247 224.551C545.849 228.128 548.288 231.868 550.564 235.77C552.841 239.51 554.955 243.575 557.068 247.64L558.532 250.73L559.833 253.982C560.32 254.957 560.646 256.095 561.133 257.234L561.784 258.86L561.946 259.347L562.109 259.998C562.272 260.486 562.434 260.973 562.434 261.461C563.085 265.364 562.759 268.128 562.272 270.729C561.784 273.331 561.133 275.607 560.32 277.884C558.857 282.274 556.906 286.502 554.955 290.404C551.052 298.371 546.499 305.688 541.296 312.843L533.491 308.453C536.743 300.81 539.833 292.843 542.434 285.201C543.735 281.298 544.873 277.396 545.686 273.656C546.174 271.868 546.499 269.916 546.499 268.29C546.662 266.664 546.499 265.201 546.337 264.876L546.174 264.551L545.524 263.25C545.199 262.437 544.711 261.461 544.223 260.648L542.922 258.047L541.459 255.445C539.508 252.03 537.394 248.616 535.117 245.201C532.841 241.787 530.565 238.535 528.126 235.12C525.849 231.868 523.248 228.453 520.809 225.527L535.117 213.982Z" fill="#FFC3BD"/>
<path d="M531.702 207.478C542.922 209.104 557.718 234.469 557.718 234.469L536.58 257.233C536.58 257.233 525.036 242.437 518.369 229.429C511.052 215.283 518.044 205.364 531.702 207.478Z" fill="#00ACEE"/>
<path d="M535.93 306.176L525.523 312.355L537.881 320.973C537.881 320.973 545.523 313.818 542.271 309.265L535.93 306.176Z" fill="#FFC3BD"/>
<path d="M521.947 321.46L532.516 328.127L538.045 320.973L525.687 312.355L521.947 321.46Z" fill="#FFC3BD"/>
<path d="M416.419 159.673H414.793C414.793 156.584 412.191 153.982 409.102 153.982V152.356C413.167 152.356 416.419 155.608 416.419 159.673Z" fill="#00ACEE"/>
<path d="M419.671 159.673H418.045C418.045 154.795 413.98 150.73 409.102 150.73V149.104C414.955 149.104 419.671 153.82 419.671 159.673Z" fill="#00ACEE"/>
<path d="M422.923 159.673H421.297C421.297 153.007 415.768 147.478 409.102 147.478V145.852C416.744 145.852 422.923 152.031 422.923 159.673Z" fill="#00ACEE"/>
<path d="M407.963 197.722C403.898 197.722 400.646 194.47 400.646 190.405H402.272C402.272 193.494 404.874 196.096 407.963 196.096V197.722Z" fill="#00ACEE"/>
<path d="M407.964 200.974C402.11 200.974 397.395 196.258 397.395 190.405H399.021C399.021 195.283 403.086 199.348 407.964 199.348V200.974Z" fill="#00ACEE"/>
<path d="M407.964 204.226C400.321 204.226 394.143 198.047 394.143 190.405H395.769C395.769 197.071 401.297 202.6 407.964 202.6V204.226Z" fill="#00ACEE"/>
<path d="M165.69 144.226H164.064V176.259H165.69V144.226Z" fill="#00ACEE"/>
<path d="M165.69 185.039H164.064V195.283H165.69V185.039Z" fill="#00ACEE"/>
<path d="M329.752 254.144H192.03C179.835 254.144 169.754 244.225 169.754 231.868V133.657C169.754 121.462 179.673 111.381 192.03 111.381H329.752C341.947 111.381 352.029 121.3 352.029 133.657V231.868C351.866 244.225 341.947 254.144 329.752 254.144Z" fill="#00ACEE"/>
<path d="M167.64 111.056C167.153 111.056 166.827 110.893 166.502 110.568L153.982 98.0479C153.332 97.3975 153.332 96.4219 153.982 95.7715C154.632 95.1211 155.608 95.1211 156.258 95.7715L168.779 108.292C169.429 108.942 169.429 109.918 168.779 110.568C168.453 110.893 168.128 111.056 167.64 111.056Z" fill="#00ACEE"/>
<path d="M175.771 107.479C174.958 107.479 174.308 106.991 174.145 106.178L171.869 94.1455C171.706 93.3325 172.357 92.3569 173.17 92.1943C173.983 92.0317 174.958 92.6821 175.121 93.4951L177.397 105.527C177.56 106.34 176.909 107.316 176.096 107.479C175.934 107.479 175.771 107.479 175.771 107.479Z" fill="#00ACEE"/>
<path d="M164.226 119.023C164.064 119.023 164.064 119.023 163.901 119.023L151.869 116.747C151.056 116.584 150.405 115.771 150.568 114.796C150.731 113.983 151.544 113.332 152.519 113.495L164.552 115.771C165.365 115.934 166.015 116.747 165.852 117.722C165.69 118.535 164.877 119.023 164.226 119.023Z" fill="#00ACEE"/>
<path d="M348.615 176.421L388.615 164.063L348.615 206.502V176.421Z" fill="#00ACEE"/>
<path d="M300.485 208.291H221.461C221.461 204.063 223.087 199.998 226.176 197.071L227.802 195.445C230.404 192.844 231.867 189.429 231.867 185.852V167.478C231.867 150.893 245.526 137.56 262.274 138.21C264.713 138.373 267.152 138.698 269.265 139.348C268.452 141.625 267.965 144.226 267.965 146.828C267.965 158.535 277.558 168.128 289.265 168.128C289.753 168.128 290.078 168.128 290.403 168.128V185.852C290.403 189.429 291.867 193.006 294.468 195.445L296.094 197.071C297.558 198.535 298.696 200.323 299.509 202.274C299.997 204.226 300.485 206.177 300.485 208.291Z" fill="white"/>
<path d="M276.583 212.681C276.257 221.136 269.103 227.965 260.323 227.64C252.193 227.315 245.851 220.648 245.363 212.681H276.583Z" fill="white"/>
<path d="M299.736 158.584C306.218 152.631 306.646 142.551 300.694 136.069C294.741 129.588 284.661 129.159 278.179 135.112C271.698 141.064 271.269 151.144 277.222 157.626C283.174 164.107 293.254 164.536 299.736 158.584Z" fill="#FF5652"/>
<path d="M287.96 135.93C290.435 135.93 292.419 137.114 293.912 139.482C295.171 141.445 295.8 143.781 295.8 146.49C295.8 149.754 295 152.367 293.4 154.33C291.992 156.079 290.179 156.954 287.96 156.954C285.421 156.954 283.437 155.823 282.008 153.562C280.813 151.685 280.216 149.327 280.216 146.49C280.216 143.333 281.005 140.741 282.584 138.714C284.013 136.858 285.805 135.93 287.96 135.93ZM288.024 139.514C285.72 139.514 284.568 141.775 284.568 146.298C284.568 148.581 284.899 150.373 285.56 151.674C286.157 152.847 286.947 153.434 287.928 153.434C289.016 153.434 289.869 152.805 290.488 151.546C291.128 150.266 291.448 148.517 291.448 146.298C291.448 141.775 290.307 139.514 288.024 139.514Z" fill="white"/>
</svg>
