<svg width="25" height="24" viewBox="0 0 25 24" fill="none" xmlns="http://www.w3.org/2000/svg">
<path d="M9.26673 11.62C9.23638 11.62 9.21616 11.62 9.18581 11.62C9.13524 11.61 9.06444 11.61 9.00375 11.62C6.07054 11.53 3.85547 9.25 3.85547 6.44C3.85547 3.58 6.21215 1.25 9.1049 1.25C11.9976 1.25 14.3543 3.58 14.3543 6.44C14.3442 9.25 12.119 11.53 9.29707 11.62C9.28696 11.62 9.27684 11.62 9.26673 11.62ZM9.1049 2.75C7.05165 2.75 5.37264 4.41 5.37264 6.44C5.37264 8.44 6.95051 10.05 8.96329 10.12C9.02398 10.11 9.15547 10.11 9.28696 10.12C11.2694 10.03 12.827 8.42 12.8371 6.44C12.8371 4.41 11.1581 2.75 9.1049 2.75Z" fill="#00ACEE"/>
<path d="M16.7291 11.75C16.6988 11.75 16.6684 11.75 16.6381 11.74C16.2234 11.78 15.7986 11.49 15.7581 11.08C15.7177 10.67 15.9705 10.3 16.3852 10.25C16.5066 10.24 16.6381 10.24 16.7494 10.24C18.2261 10.16 19.3791 8.96 19.3791 7.49C19.3791 5.97 18.135 4.74 16.5976 4.74C16.1829 4.75 15.8391 4.41 15.8391 4C15.8391 3.59 16.1829 3.25 16.5976 3.25C18.9644 3.25 20.8963 5.16 20.8963 7.5C20.8963 9.8 19.0757 11.66 16.7595 11.75C16.7494 11.75 16.7392 11.75 16.7291 11.75Z" fill="#00ACEE"/>
<path d="M9.27387 22.55C7.29142 22.55 5.29887 22.05 3.79181 21.05C2.38589 20.13 1.61719 18.87 1.61719 17.5C1.61719 16.13 2.38589 14.86 3.79181 13.93C6.82616 11.94 11.7418 11.94 14.7559 13.93C16.1517 14.85 16.9305 16.11 16.9305 17.48C16.9305 18.85 16.1618 20.12 14.7559 21.05C13.2388 22.05 11.2563 22.55 9.27387 22.55ZM4.63131 15.19C3.66032 15.83 3.13436 16.65 3.13436 17.51C3.13436 18.36 3.67043 19.18 4.63131 19.81C7.14982 21.48 11.3979 21.48 13.9164 19.81C14.8874 19.17 15.4134 18.35 15.4134 17.49C15.4134 16.64 14.8773 15.82 13.9164 15.19C11.3979 13.53 7.14982 13.53 4.63131 15.19Z" fill="#00ACEE"/>
<path d="M18.5479 20.75C18.1939 20.75 17.8804 20.51 17.8095 20.15C17.7286 19.74 17.9916 19.35 18.3962 19.26C19.0334 19.13 19.62 18.88 20.0752 18.53C20.6517 18.1 20.9653 17.56 20.9653 16.99C20.9653 16.42 20.6517 15.88 20.0853 15.46C19.6403 15.12 19.084 14.88 18.4265 14.73C18.022 14.64 17.759 14.24 17.85 13.83C17.941 13.43 18.3456 13.17 18.7603 13.26C19.6302 13.45 20.3887 13.79 21.0057 14.26C21.9464 14.96 22.4824 15.95 22.4824 16.99C22.4824 18.03 21.9363 19.02 20.9956 19.73C20.3685 20.21 19.5796 20.56 18.7097 20.73C18.6491 20.75 18.5985 20.75 18.5479 20.75Z" fill="#00ACEE"/>
</svg>
