<svg width="25" height="24" viewBox="0 0 25 24" fill="none" xmlns="http://www.w3.org/2000/svg">
<path d="M6.95976 18.9001C6.54507 18.9001 6.20117 18.5601 6.20117 18.1501V16.0801C6.20117 15.6701 6.54507 15.3301 6.95976 15.3301C7.37445 15.3301 7.71835 15.6701 7.71835 16.0801V18.1501C7.71835 18.5701 7.37445 18.9001 6.95976 18.9001Z" fill="#00ACEE"/>
<path d="M12.1375 18.9C11.7228 18.9 11.3789 18.56 11.3789 18.15V14C11.3789 13.59 11.7228 13.25 12.1375 13.25C12.5522 13.25 12.8961 13.59 12.8961 14V18.15C12.8961 18.57 12.5522 18.9 12.1375 18.9Z" fill="#00ACEE"/>
<path d="M17.3172 18.8997C16.9025 18.8997 16.5586 18.5597 16.5586 18.1497V11.9297C16.5586 11.5197 16.9025 11.1797 17.3172 11.1797C17.7319 11.1797 18.0758 11.5197 18.0758 11.9297V18.1497C18.0758 18.5697 17.742 18.8997 17.3172 18.8997Z" fill="#00ACEE"/>
<path d="M6.95852 13.1804C6.61462 13.1804 6.31119 12.9504 6.22016 12.6104C6.11901 12.2104 6.36176 11.8004 6.77645 11.7004C10.4986 10.7804 13.7757 8.77041 16.274 5.90041L16.7392 5.36041C17.0123 5.05041 17.4877 5.01041 17.8114 5.28041C18.1249 5.55041 18.1654 6.02041 17.8923 6.34041L17.427 6.88041C14.7265 10.0004 11.1661 12.1704 7.14058 13.1604C7.07989 13.1804 7.0192 13.1804 6.95852 13.1804Z" fill="#00ACEE"/>
<path d="M17.3178 9.51961C16.9031 9.51961 16.5593 9.17961 16.5593 8.76961V6.59961H14.3543C13.9396 6.59961 13.5957 6.25961 13.5957 5.84961C13.5957 5.43961 13.9396 5.09961 14.3543 5.09961H17.3178C17.7325 5.09961 18.0764 5.43961 18.0764 5.84961V8.77961C18.0764 9.18961 17.7427 9.51961 17.3178 9.51961Z" fill="#00ACEE"/>
<path d="M15.1731 22.75H9.10437C3.61219 22.75 1.26562 20.43 1.26562 15V9C1.26562 3.57 3.61219 1.25 9.10437 1.25H15.1731C20.6652 1.25 23.0118 3.57 23.0118 9V15C23.0118 20.43 20.6652 22.75 15.1731 22.75ZM9.10437 2.75C4.44158 2.75 2.7828 4.39 2.7828 9V15C2.7828 19.61 4.44158 21.25 9.10437 21.25H15.1731C19.8359 21.25 21.4946 19.61 21.4946 15V9C21.4946 4.39 19.8359 2.75 15.1731 2.75H9.10437Z" fill="#00ACEE"/>
</svg>
