<svg width="27" height="27" viewBox="0 0 27 27" fill="none" xmlns="http://www.w3.org/2000/svg">
<path d="M7.23226 2.71473C7.37409 2.54545 7.4439 2.32731 7.4267 2.10713C7.4095 1.88695 7.30666 1.6823 7.14025 1.5371C6.97385 1.3919 6.75714 1.31773 6.53667 1.33052C6.31619 1.3433 6.10951 1.44202 5.96101 1.60548L4.50751 3.27048C3.68331 4.215 3.2174 5.4192 3.19126 6.67248L3.12713 9.73136C3.12484 9.84216 3.1444 9.95233 3.18469 10.0556C3.22497 10.1588 3.2852 10.2531 3.36193 10.3331C3.43866 10.4131 3.53039 10.4771 3.63188 10.5216C3.73338 10.5662 3.84264 10.5903 3.95345 10.5925C4.06425 10.5948 4.17442 10.5753 4.27766 10.535C4.38091 10.4947 4.47521 10.4345 4.55517 10.3577C4.63514 10.281 4.69922 10.1893 4.74373 10.0878C4.78825 9.9863 4.81234 9.87704 4.81463 9.76623L4.87763 6.70848C4.89568 5.85093 5.21466 5.02701 5.77876 4.38086L7.23226 2.71473Z" fill="#00ACEE"/>
<path fill-rule="evenodd" clip-rule="evenodd" d="M7.01596 8.6625C7.09151 7.4589 7.62292 6.32934 8.502 5.50377C9.38108 4.67819 10.5417 4.21867 11.7477 4.21875H12.3743V3.375C12.3743 3.07663 12.4929 2.79048 12.7038 2.5795C12.9148 2.36853 13.201 2.25 13.4993 2.25C13.7977 2.25 14.0838 2.36853 14.2948 2.5795C14.5058 2.79048 14.6243 3.07663 14.6243 3.375V4.21875H15.251C16.4569 4.21867 17.6176 4.67819 18.4967 5.50377C19.3757 6.32934 19.9072 7.4589 19.9827 8.6625L20.2313 12.6383C20.3261 14.1541 20.8351 15.615 21.7028 16.8615C21.8821 17.1192 21.9917 17.4189 22.0208 17.7315C22.05 18.0441 21.9977 18.3588 21.8692 18.6453C21.7407 18.9317 21.5402 19.1799 21.2873 19.3659C21.0344 19.5519 20.7377 19.6693 20.426 19.7066L16.5931 20.1656V21.375C16.5931 22.1955 16.2671 22.9824 15.6869 23.5626C15.1068 24.1428 14.3198 24.4688 13.4993 24.4688C12.6788 24.4688 11.8919 24.1428 11.3117 23.5626C10.7315 22.9824 10.4056 22.1955 10.4056 21.375V20.1656L6.57271 19.7055C6.26119 19.6681 5.96465 19.5507 5.71191 19.3647C5.45916 19.1788 5.2588 18.9307 5.13029 18.6445C5.00178 18.3582 4.94949 18.0436 4.97849 17.7312C5.0075 17.4188 5.11682 17.1192 5.29583 16.8615C6.16355 15.6149 6.67253 14.1541 6.76733 12.6383L7.01596 8.66363V8.6625ZM11.7477 5.90625C10.971 5.90616 10.2234 6.20209 9.65721 6.73381C9.09101 7.26553 8.74874 7.99305 8.70008 8.76825L8.45258 12.744C8.33822 14.5676 7.72574 16.3249 6.68183 17.8245C6.66886 17.8431 6.66093 17.8648 6.65881 17.8874C6.65669 17.91 6.66046 17.9328 6.66974 17.9535C6.67903 17.9742 6.69352 17.9922 6.7118 18.0057C6.73008 18.0191 6.75154 18.0277 6.77408 18.0304L10.9782 18.5355C12.6533 18.7358 14.3453 18.7358 16.0205 18.5355L20.2246 18.0304C20.2471 18.0277 20.2686 18.0191 20.2869 18.0057C20.3051 17.9922 20.3196 17.9742 20.3289 17.9535C20.3382 17.9328 20.342 17.91 20.3399 17.8874C20.3377 17.8648 20.3298 17.8431 20.3168 17.8245C19.2733 16.3248 18.6612 14.5675 18.5472 12.744L18.2986 8.76825C18.2499 7.99305 17.9077 7.26553 17.3415 6.73381C16.7753 6.20209 16.0277 5.90616 15.251 5.90625H11.7477ZM13.4993 22.7813C12.7231 22.7813 12.0931 22.1513 12.0931 21.375V20.5313H14.9056V21.375C14.9056 22.1513 14.2756 22.7813 13.4993 22.7813Z" fill="#00ACEE"/>
<path d="M19.8475 1.52429C19.6789 1.67141 19.5757 1.87945 19.5605 2.10265C19.5454 2.32585 19.6194 2.54595 19.7665 2.71454L21.22 4.37954C21.7839 5.02615 22.1025 5.85049 22.12 6.70829L22.1841 9.76492C22.1887 9.9887 22.2821 10.2015 22.4436 10.3564C22.6051 10.5114 22.8215 10.5959 23.0453 10.5912C23.2691 10.5866 23.4818 10.4933 23.6368 10.3318C23.7918 10.1703 23.8762 9.95382 23.8716 9.73004L23.8075 6.67229C23.7813 5.41901 23.3154 4.21481 22.4912 3.27029L21.0377 1.60529C20.8906 1.43676 20.6826 1.33354 20.4594 1.31835C20.2362 1.30317 20.0161 1.37724 19.8475 1.52429Z" fill="#00ACEE"/>
</svg>
