<svg width="22" height="21" viewBox="0 0 22 21" fill="none" xmlns="http://www.w3.org/2000/svg">
<path d="M14.1498 20.54H14.0183C9.52751 20.54 7.363 18.79 6.98877 14.87C6.94831 14.46 7.25174 14.09 7.67655 14.05C8.09125 14.01 8.46548 14.32 8.50594 14.73C8.79926 17.87 10.2962 19.04 14.0285 19.04H14.16C18.2766 19.04 19.733 17.6 19.733 13.53V7.01C19.733 2.94 18.2766 1.5 14.16 1.5H14.0285C10.276 1.5 8.77903 2.69 8.50594 5.89C8.45537 6.3 8.11148 6.61 7.67655 6.57C7.25174 6.54 6.94831 6.17 6.97865 5.76C7.32254 1.78 9.49716 0 14.0183 0H14.1498C19.1161 0 21.2401 2.1 21.2401 7.01V13.53C21.2401 18.44 19.1161 20.54 14.1498 20.54Z" fill="#00ACEE"/>
<path d="M13.7861 11.0195H0.758588C0.343893 11.0195 0 10.6795 0 10.2695C0 9.85953 0.343893 9.51953 0.758588 9.51953H13.7861C14.2008 9.51953 14.5447 9.85953 14.5447 10.2695C14.5447 10.6795 14.2109 11.0195 13.7861 11.0195Z" fill="#00ACEE"/>
<path d="M11.5295 14.3694C11.3373 14.3694 11.1451 14.2994 10.9934 14.1494C10.7001 13.8594 10.7001 13.3794 10.9934 13.0894L13.8457 10.2694L10.9934 7.44938C10.7001 7.15938 10.7001 6.67937 10.9934 6.38938C11.2867 6.09938 11.7722 6.09938 12.0656 6.38938L15.4539 9.73938C15.7472 10.0294 15.7472 10.5094 15.4539 10.7994L12.0656 14.1494C11.9138 14.2994 11.7217 14.3694 11.5295 14.3694Z" fill="#00ACEE"/>
</svg>
