<?xml version="1.0" encoding="UTF-8"?>
<svg id="Layer_1" data-name="Layer 1" xmlns="http://www.w3.org/2000/svg" viewBox="0 0 500 372.19">
  <path d="M500,327.4H0v.25h500v-.25Z" style="fill: #fdeeee; stroke-width: 0px;"/>
  <path d="M449.9,343.49h-21.68v.25h21.68v-.25Z" style="fill: #fdeeee; stroke-width: 0px;"/>
  <path d="M344.67,338.31h-34.11v.25h34.11v-.25Z" style="fill: #fdeeee; stroke-width: 0px;"/>
  <path d="M441.12,334.21h-44.53v.25h44.53v-.25Z" style="fill: #fdeeee; stroke-width: 0px;"/>
  <path d="M173.02,339.25h-11.14v.25h11.14v-.25Z" style="fill: #fdeeee; stroke-width: 0px;"/>
  <path d="M152.97,339.25h-38.39v.25h38.39v-.25Z" style="fill: #fdeeee; stroke-width: 0px;"/>
  <path d="M94.01,335.03h-27.7v.25h27.7v-.25Z" style="fill: #fdeeee; stroke-width: 0px;"/>
  <path d="M237,282.8H43.91c-1.51,0-2.96-.6-4.03-1.68-1.07-1.07-1.67-2.52-1.67-4.03V5.66c.01-1.5.62-2.94,1.69-4,1.07-1.06,2.51-1.66,4.01-1.66h193.09c1.51,0,2.97.6,4.04,1.67,1.07,1.07,1.67,2.52,1.67,4.04v271.38c0,1.51-.6,2.97-1.67,4.04-1.07,1.07-2.52,1.67-4.04,1.67ZM43.91.2c-1.45,0-2.83.58-3.85,1.6-1.02,1.02-1.6,2.41-1.6,3.86v271.43c0,1.45.57,2.83,1.6,3.86,1.02,1.02,2.41,1.6,3.85,1.6h193.09c1.45,0,2.84-.58,3.86-1.6,1.02-1.02,1.6-2.41,1.6-3.86V5.66c0-1.45-.58-2.83-1.6-3.86-1.02-1.02-2.41-1.6-3.86-1.6H43.91Z" style="fill: #fdeeee; stroke-width: 0px;"/>
  <path d="M453.31,282.8h-193.1c-1.51,0-2.96-.6-4.04-1.67-1.07-1.07-1.67-2.52-1.67-4.04V5.66c.02-1.5.62-2.94,1.69-4,1.07-1.06,2.51-1.66,4.02-1.66h193.1c1.5,0,2.94.6,4.01,1.66,1.07,1.06,1.67,2.5,1.68,4v271.43c0,1.51-.6,2.96-1.67,4.03-1.07,1.07-2.51,1.67-4.02,1.68ZM260.21.2c-1.45,0-2.83.58-3.86,1.6-1.02,1.02-1.6,2.41-1.6,3.86v271.43c0,1.45.58,2.83,1.6,3.86,1.02,1.02,2.41,1.6,3.86,1.6h193.1c1.45,0,2.83-.58,3.86-1.6,1.02-1.02,1.6-2.41,1.6-3.86V5.66c0-1.45-.58-2.83-1.6-3.86-1.02-1.02-2.41-1.6-3.86-1.6h-193.1Z" style="fill: #fdeeee; stroke-width: 0px;"/>
  <path d="M216.07,145.88l.45-13.14-8.06-2.64c-.35-4.45-1.07-8.87-2.16-13.2l6.84-5-4.64-12.34-8.46.68c-2.01-3.98-4.35-7.77-7-11.35l4.38-7.31-9-9.61-7.56,3.87c-3.4-2.91-7.03-5.53-10.86-7.84l1.22-8.4-12-5.44-5.5,6.44c-4.24-1.36-8.59-2.36-13-3l-2-8.23-13.18-.45-2.6,8.07c-4.45.35-8.86,1.07-13.19,2.15l-5.08-6.8-12.34,4.61.68,8.46c-3.97,2.04-7.77,4.4-11.35,7.07l-7.36-4.48-9.65,9,3.87,7.6c-2.91,3.38-5.52,7.01-7.8,10.84l-8.39-1.26-5.48,12,6.48,5.49c-1.37,4.24-2.37,8.59-3,13l-8.33,2.09-.45,13.14,8.1,2.64c.33,4.45,1.05,8.86,2.15,13.19l-6.84,5,4.65,12.35,8.46-.68c2,3.98,4.34,7.78,7,11.35l-4.39,7.31,9,9.61,7.56-3.87c3.39,2.9,7.02,5.52,10.84,7.83l-1.26,8.39,12,5.45,5.53-6.44c4.24,1.37,8.59,2.39,13,3.05l2,8.23,13.18.45,2.6-8.07c4.45-.35,8.87-1.07,13.2-2.15l5,6.8,12.34-4.61-.64-8.46c3.97-2.05,7.76-4.41,11.35-7.07l7.27,4.38,9.65-9-3.87-7.6c2.91-3.38,5.52-7.01,7.8-10.84l8.39,1.26,5.48-12-6.48-5.5c1.39-4.24,2.41-8.59,3.05-13l8.4-2.02ZM127.28,188.45c-10.31-.35-20.29-3.75-28.67-9.77-8.38-6.02-14.79-14.39-18.41-24.05-3.62-9.66-4.3-20.18-1.94-30.22,2.36-10.04,7.64-19.17,15.18-26.21,7.54-7.04,17-11.69,27.18-13.36,10.18-1.67,20.63-.27,30.02,4,9.39,4.27,17.31,11.24,22.74,20.01,5.43,8.77,8.14,18.96,7.79,29.27-.47,13.82-6.42,26.89-16.52,36.32-10.11,9.44-23.55,14.48-37.37,14.01Z" style="fill: #fdeeee; stroke-width: 0px;"/>
  <path d="M441,102.42l3.31-3.09-1.31-2.61c1-1.17,1.9-2.42,2.69-3.74l2.9.43,1.87-4.14-2.22-1.89c.48-1.46.83-2.97,1.05-4.49l2.85-.71.14-4.54-2.78-.9c-.12-1.54-.37-3.06-.74-4.56l2.35-1.75-1.6-4.25-2.91.23c-.7-1.37-1.51-2.68-2.43-3.92l1.51-2.5-3.11-3.32-2.6,1.33c-1.17-1-2.42-1.9-3.74-2.69l.42-2.9-4.13-1.89-1.9,2.23c-1.47-.46-2.97-.79-4.49-1l-.71-2.84-4.54-.17-.91,2.8c-1.53.12-3.05.36-4.54.74l-1.74-2.35-4.26,1.59.24,2.92c-1.38.69-2.69,1.51-3.92,2.43l-2.52-1.51-3.32,3.09,1.29,2.55c-1.01,1.17-1.91,2.42-2.7,3.74l-2.89-.43-1.88,4.14,2.23,1.9c-.46,1.46-.8,2.96-1,4.48l-2.86.71-.14,4.54,2.79.9c.11,1.54.36,3.06.73,4.56l-2.36,1.74,1.6,4.25,2.92-.22c.7,1.37,1.51,2.68,2.43,3.92l-1.51,2.5,3.11,3.32,2.6-1.33c1.17,1,2.42,1.9,3.74,2.69l-.43,2.89,4.14,1.89,1.9-2.22c1.47.45,2.97.79,4.49,1l.71,2.84,4.54.17.91-2.8c1.53-.12,3.05-.36,4.54-.74l1.74,2.35,4.26-1.59-.23-2.92c1.37-.7,2.68-1.51,3.91-2.43l2.51,1.57ZM417.38,83.29c-.87-.94-1.45-2.11-1.65-3.37-.21-1.26-.03-2.56.5-3.72.53-1.16,1.4-2.15,2.48-2.82,1.09-.67,2.35-1.01,3.63-.96,1.28.04,2.52.47,3.55,1.22,1.04.75,1.83,1.79,2.28,2.99s.53,2.5.24,3.75c-.29,1.25-.95,2.38-1.89,3.25-.62.59-1.35,1.04-2.15,1.34-.8.3-1.65.44-2.5.41-.85-.03-1.69-.23-2.47-.58-.78-.36-1.48-.86-2.05-1.49h.04Z" style="fill: #fdeeee; stroke-width: 0px;"/>
  <path d="M320,237.34l-10.34-7.15c-1.01-3.72-2.41-7.33-4.16-10.77l2.65-10.4-15-16.06-10.56,1.93c-3.31-1.99-6.82-3.62-10.47-4.89l-6.42-10.81-22-.75-7.14,10.34c-3.72,1.01-7.32,2.4-10.76,4.15l-10.4-2.65-16.06,15,1.93,10.54c-1.98,3.32-3.62,6.83-4.88,10.49l-10.81,6.42-.75,22,10.35,7.14c1,3.74,2.39,7.37,4.15,10.82l-2.68,10.31,15,16.06,10.49-1.92c3.34,1.99,6.87,3.63,10.54,4.9l6.41,10.79,22,.76,7.13-10.34c3.75-1.01,7.39-2.41,10.86-4.16l10.34,2.64,16.07-15-1.93-10.54c1.99-3.32,3.62-6.84,4.88-10.5l10.81-6.42.75-21.93ZM251.55,270.73c-4.88-.17-9.61-1.78-13.58-4.63-3.97-2.85-7-6.82-8.72-11.39-1.71-4.58-2.04-9.56-.92-14.32,1.12-4.76,3.62-9.08,7.19-12.41,3.57-3.34,8.05-5.54,12.87-6.33,4.82-.79,9.77-.13,14.22,1.89,4.45,2.02,8.2,5.32,10.77,9.47,2.58,4.15,3.86,8.98,3.7,13.86-.23,6.55-3.05,12.74-7.84,17.21-4.79,4.47-11.16,6.86-17.71,6.65h.01Z" style="fill: #fdeeee; stroke-width: 0px;"/>
  <path d="M343.55,175h-.07l-17.32-.59c-.35,0-.69-.1-1-.28-.3-.18-.56-.42-.74-.72l-4.67-7.85c-2.52-.92-4.95-2.05-7.28-3.38l-7.47,1.29c-.35.06-.71.04-1.04-.07-.34-.11-.64-.31-.88-.57l-11.83-12.66c-.25-.26-.42-.58-.51-.93-.09-.35-.08-.72.01-1.07l1.89-7.41c-1.17-2.4-2.13-4.9-2.86-7.47l-7.53-5.2c-.29-.2-.53-.47-.69-.79-.16-.32-.24-.67-.22-1.02l.59-17.32c.01-.35.11-.69.28-1,.17-.3.42-.56.72-.74l7.87-4.67c.91-2.51,2.04-4.94,3.37-7.25l-1.38-7.53c-.07-.35-.04-.71.07-1.05s.31-.64.57-.88l12.66-11.82c.26-.25.58-.43.93-.52.35-.09.72-.09,1.07,0l7.44,1.9c2.39-1.17,4.89-2.13,7.45-2.87l5.2-7.53c.19-.3.46-.54.78-.7.32-.16.67-.23,1.03-.21l17.31.6c.35,0,.7.1,1,.28s.56.42.75.72l4.67,7.86c2.5.92,4.92,2.05,7.22,3.38l7.56-1.39c.35-.06.71-.04,1.04.07.33.11.64.31.88.57l11.83,12.66c.25.26.42.59.51.94.09.35.08.72,0,1.06l-1.9,7.43c1.17,2.4,2.13,4.89,2.88,7.45l7.52,5.2c.29.2.53.47.69.79.16.32.24.67.22,1.02l-.59,17.31c-.01.35-.11.69-.28,1-.17.31-.42.56-.72.75l-7.87,4.67c-.91,2.51-2.04,4.93-3.37,7.24l1.38,7.54c.07.35.04.71-.07,1.04-.11.34-.31.64-.57.88l-12.74,11.83c-.26.25-.58.43-.93.51-.35.09-.72.08-1.07-.01l-7.4-1.89c-2.41,1.17-4.92,2.13-7.49,2.87l-5.15,7.52c-.19.3-.44.54-.74.72-.3.17-.65.27-1,.28ZM327.46,170.23l15,.51,5-7.19c.28-.42.7-.72,1.19-.84,2.81-.77,5.54-1.82,8.15-3.13.45-.22.97-.27,1.46-.15l7,1.79,11-10.25-1.26-7.23c-.1-.51,0-1.03.26-1.47,1.48-2.48,2.71-5.1,3.65-7.83.16-.49.49-.92.94-1.18l7.53-4.46.51-15-7.2-5c-.38-.26-.66-.64-.81-1.07v-.17c-.77-2.76-1.82-5.44-3.12-8-.23-.46-.29-.98-.16-1.48l1.8-7.08-10.25-11-7.19,1.32c-.5.09-1.02,0-1.46-.26-2.48-1.49-5.11-2.72-7.84-3.67-.16-.05-.31-.12-.45-.2-.29-.18-.53-.43-.7-.72l-4.51-7.55-15-.52-5,7.21c-.3.42-.74.72-1.24.85-2.79.76-5.49,1.8-8.06,3.11-.45.23-.98.29-1.47.16l-7.08-1.8-11,10.25,1.32,7.17c.08.45.01.92-.19,1.33l-.1.17c-1.49,2.49-2.71,5.12-3.65,7.86-.17.47-.49.87-.92,1.12l-7.53,4.47-.51,15,7.21,5c.41.28.71.7.84,1.18.75,2.81,1.79,5.53,3.11,8.12.07.15.13.3.17.46.08.33.08.67,0,1l-1.8,7,10.25,11,7.14-1.31c.5-.09,1.01,0,1.45.26,2.5,1.49,5.14,2.72,7.89,3.67.5.15.92.48,1.17.93l4.46,7.62ZM336.73,151.26h-1.11c-8.31-.15-16.23-3.57-22.03-9.53-5.8-5.96-9.02-13.96-8.94-22.28s3.43-16.26,9.33-22.12c5.9-5.85,13.88-9.14,22.2-9.14s16.29,3.28,22.2,9.14c5.9,5.85,9.26,13.8,9.33,22.12s-3.14,16.32-8.94,22.28c-5.8,5.96-13.72,9.38-22.03,9.53ZM336.73,92.17c-7.27.13-14.18,3.12-19.26,8.32-5.07,5.2-7.88,12.2-7.82,19.46.06,7.27,2.99,14.21,8.15,19.33,5.16,5.12,12.13,7.99,19.4,7.99s14.24-2.87,19.4-7.99c5.16-5.12,8.09-12.06,8.15-19.33.06-7.26-2.75-14.26-7.82-19.46-5.07-5.2-11.99-8.19-19.26-8.32h-.95Z" style="fill: #fdeeee; stroke-width: 0px;"/>
  <path d="M383.44,50.32l-7.18-1.92-1.92-7.18,2.81-2.8,2.96,6.13,6.14,2.97-2.81,2.8Z" style="fill: #fdeeee; stroke-width: 0px;"/>
  <path d="M383.88,45.52c.31-.31.56-.68.73-1.09.17-.41.25-.84.25-1.28s-.09-.87-.25-1.28-.41-.77-.73-1.09c-.31-.31-.68-.56-1.08-.73-.41-.17-.84-.25-1.28-.25s-.87.09-1.28.25c-.41.17-.77.41-1.08.73l3.57-5.36,4.78,2.42,1.05,5-4.67,2.67Z" style="fill: #fdeeee; stroke-width: 0px;"/>
  <path d="M376.58,39l5.26-5.26,7.16,1.91,1.93,7.17-5.26,5.26-7.17-1.93-1.92-7.15ZM386.13,43.3c.47-.47.79-1.07.92-1.72.13-.65.06-1.32-.19-1.94-.25-.61-.68-1.13-1.23-1.5-.55-.37-1.2-.56-1.86-.56s-1.31.2-1.86.56c-.55.37-.98.89-1.23,1.5-.25.61-.32,1.29-.19,1.94.13.65.45,1.25.92,1.72.63.62,1.49.97,2.37.96.89,0,1.74-.36,2.37-.98v.02Z" style="fill: #fcdede; stroke-width: 0px;"/>
  <path d="M90.22,241.71l3.85-1.04,1.03-3.85-1.5-1.5-1.59,3.29-3.3,1.59,1.51,1.51Z" style="fill: #fdeeee; stroke-width: 0px;"/>
  <path d="M90,239.13c-.3-.34-.46-.79-.44-1.25.02-.46.2-.89.53-1.21.32-.32.76-.51,1.21-.53.46-.01.9.14,1.25.44l-1.91-2.87-2.63,1.28-.56,2.7,2.56,1.43Z" style="fill: #fdeeee; stroke-width: 0px;"/>
  <path d="M93.9,235.62l-2.82-2.82-3.85,1-1,3.85,2.77,2.85,3.85-1,1.05-3.88ZM88.78,237.93c-.19-.16-.34-.36-.44-.58-.11-.22-.16-.46-.17-.71,0-.25.03-.49.12-.72.09-.23.23-.44.4-.61.17-.17.38-.31.61-.4.23-.09.47-.13.72-.12.25,0,.49.07.71.17.22.11.42.26.58.44.3.34.46.79.44,1.24-.02.46-.2.89-.53,1.21-.32.32-.76.51-1.21.53s-.9-.14-1.25-.45Z" style="fill: #fcdede; stroke-width: 0px;"/>
  <path d="M76.36,30.66l3.2,3.2c.4.39.94.61,1.5.61s1.1-.22,1.5-.61c.39-.4.61-.94.61-1.5s-.22-1.1-.61-1.5l-3.19-3.19c-.4-.39-.94-.61-1.5-.61s-1.1.22-1.5.61c-.39.4-.61.93-.61,1.49,0,.56.21,1.1.6,1.5Z" style="fill: #fcdede; stroke-width: 0px;"/>
  <path d="M74.11,22.71c.83-.23,1.72-.22,2.55.05.83.26,1.56.76,2.1,1.44.55.67.88,1.49.97,2.35.09.86-.08,1.73-.48,2.5-.4.77-1.01,1.41-1.77,1.83s-1.62.62-2.48.56c-.86-.06-1.69-.37-2.38-.89-.69-.52-1.21-1.24-1.5-2.05-.18-.58-.25-1.18-.2-1.79.05-.6.22-1.19.5-1.73.28-.54.66-1.01,1.12-1.4.46-.39,1-.68,1.58-.86Z" style="fill: #fdeeee; stroke-width: 0px;"/>
  <path d="M70.63,27.95l.46,1.29,9.51-3.41-.46-1.29-9.51,3.41Z" style="fill: #fcdede; stroke-width: 0px;"/>
  <path d="M250,372.19c107.08,0,193.89-5.07,193.89-11.32s-86.81-11.32-193.89-11.32-193.89,5.07-193.89,11.32,86.81,11.32,193.89,11.32Z" style="fill: #fcdede; stroke-width: 0px;"/>
  <path d="M216.36,248.73c1.39-22.4-1.16-63.13,40.95-57.73,45.13,5.77,32.22,58.55,32.22,58.55l-73.17-.82Z" style="fill: #8f3535; stroke-width: 0px;"/>
  <path d="M245.42,235.27c10.15,0,18.38-8.23,18.38-18.38s-8.23-18.38-18.38-18.38-18.38,8.23-18.38,18.38,8.23,18.38,18.38,18.38Z" style="fill: #fff; stroke-width: 0px;"/>
  <path d="M247.84,198.54c-8.71-1.48-18,4.93-18.93,11.43l34.51,3.18c-1.22-7.41-8.68-13.43-15.58-14.61Z" style="fill: #8f3535; stroke-width: 0px;"/>
  <path d="M259.49,216.43c-.25,4.81-2.87,8.58-5.85,8.42-2.98-.16-5.2-4.17-5-9s2.87-8.58,5.85-8.42,5.24,4.2,5,9Z" style="fill: #8f3535; stroke-width: 0px;"/>
  <path d="M245.42,236.27c-3.83,0-7.58-1.14-10.77-3.27s-5.67-5.16-7.14-8.7c-1.47-3.54-1.85-7.44-1.1-11.2.75-3.76,2.59-7.21,5.3-9.92,2.71-2.71,6.16-4.56,9.92-5.3,3.76-.75,7.66-.36,11.2,1.1,3.54,1.47,6.57,3.95,8.7,7.14,2.13,3.19,3.27,6.93,3.27,10.77,0,5.14-2.05,10.06-5.68,13.7-3.63,3.63-8.56,5.68-13.7,5.68ZM245.42,199.52c-3.44,0-6.8,1.02-9.66,2.93-2.86,1.91-5.09,4.63-6.4,7.8-1.32,3.18-1.66,6.67-.99,10.04.67,3.37,2.33,6.47,4.76,8.9,2.43,2.43,5.53,4.08,8.9,4.75,3.37.67,6.87.32,10.04-.99,3.18-1.32,5.89-3.55,7.8-6.41,1.91-2.86,2.93-6.22,2.92-9.66,0-4.61-1.84-9.02-5.1-12.28-3.26-3.26-7.68-5.09-12.28-5.09Z" style="fill: #ee5858; stroke-width: 0px;"/>
  <path d="M284.4,248.17h-.12c-.06-.01-.12-.04-.18-.08-.05-.04-.1-.09-.13-.14-.04-.06-.06-.12-.07-.18-.01-.07,0-.13,0-.2,0-.13,3.22-13.69-.09-27.4-.03-.13-.01-.27.06-.39.07-.12.18-.2.32-.23.13-.03.27,0,.39.06.12.07.2.19.23.32,3.37,14,.12,27.74.09,27.87-.03.11-.1.21-.19.28-.09.07-.21.1-.32.09Z" style="fill: #fff; isolation: isolate; opacity: .3; stroke-width: 0px;"/>
  <path d="M281.61,212.65c-.1,0-.19-.03-.27-.08-.08-.05-.15-.12-.19-.21-1.24-2.75-2.84-5.32-4.74-7.66-.08-.1-.12-.23-.11-.36.01-.13.08-.25.18-.34.05-.04.11-.07.17-.09.06-.02.13-.03.2-.02.07,0,.13.03.19.06.06.03.11.07.15.13,1.95,2.41,3.59,5.05,4.87,7.87.03.06.05.12.05.19,0,.07,0,.13-.03.19-.02.06-.06.12-.1.17-.04.05-.1.09-.16.11-.07.03-.14.05-.21.05Z" style="fill: #fff; isolation: isolate; opacity: .3; stroke-width: 0px;"/>
  <path d="M122.64,353.81h-.37c-1.33-.04-2.58-.6-3.49-1.56-.91-.96-1.4-2.25-1.37-3.58s.6-2.58,1.56-3.49c.96-.91,2.25-1.4,3.58-1.37h.09c2.89,0,9.84-3.51,24.38-26.43.39-.61.9-1.13,1.5-1.52s1.29-.65,2-.75c.71-.1,1.44-.05,2.13.15.69.2,1.33.56,1.87,1.03,11.42,9.82,23.87,18.36,37.14,25.48.61.28,1.17.68,1.62,1.18s.8,1.08,1.03,1.72c.22.64.32,1.31.27,1.99-.04.67-.22,1.33-.53,1.93-.31.6-.73,1.14-1.25,1.57-.52.43-1.12.76-1.76.95-.65.2-1.32.26-1.99.19-.67-.07-1.32-.28-1.91-.61-12.33-6.55-23.99-14.3-34.8-23.14-12.19,18.35-21.23,26.27-29.71,26.27Z" style="fill: #8f3535; stroke-width: 0px;"/>
  <path d="M153.58,315.39h-.43c-.79-.11-1.49-.54-1.97-1.17-.48-.64-.68-1.43-.57-2.22.71-5-.17-23.63-6.48-38.13-.28-.64-.33-1.36-.13-2.03.19-.67.62-1.26,1.19-1.65,13.7-9.33,42.88-10.45,44.12-10.49.39-.01.79.05,1.16.19.37.14.71.35.99.62.29.27.52.59.68.95.16.36.25.75.27,1.14.01.39-.05.79-.19,1.16-.14.37-.35.71-.62.99-.27.29-.59.52-.95.68-.36.16-.75.25-1.14.27-.27,0-25.78,1-38.88,8.2,5.58,14.44,6.85,32.43,5.92,38.94-.11.71-.47,1.36-1.01,1.83-.55.47-1.24.72-1.96.72Z" style="fill: #8f3535; stroke-width: 0px;"/>
  <path d="M158.62,311.51c-2-4.71-11-4.18-16.27-.14-2.82,2.15-6.64,8.64-7,11-.12.56-.1,1.14.05,1.69.15.55.44,1.06.83,1.48.39.42.88.73,1.42.92.54.19,1.12.24,1.69.15,3.45-.3,8.18-5.31,8.18-5.31-3.15,3.09.92,5.27,7,.8,3.32-2.49,6.32-5.32,4.09-10.59Z" style="fill: #ee5858; stroke-width: 0px;"/>
  <path d="M330.62,250.05s-.09.01-.14,0c-.06-.02-.12-.05-.18-.09-.05-.04-.1-.09-.13-.15-.03-.06-.05-.12-.06-.19,0-.07,0-.13.02-.19,1.33-4.64,2.78-7.47,4.69-9-.3-1.08-.24-2.22.16-3.26.47-1.22,1.29-2.26,2.36-3-.29-.31-.5-.7-.6-1.11-.1-.42-.1-.85.01-1.27.36-1.25,1.11-2.36,2.14-3.16-.37-.42-.57-.95-.57-1.51,0-3,5.51-7.52,11.76-8.38.13-.02.27.02.37.1.11.08.18.2.2.33.02.13-.02.27-.1.37s-.2.18-.33.2c-5.94.81-10.92,5.11-10.9,7.38,0,.34.13.66.36.91,1.35-.91,2.86-1.55,4.45-1.87,1.59-.32,3.24-.32,4.83,0,3.07.59,4.32,1.24,4.18,2.17-.28,1.75-6.81,2.12-11.19,1.6-.79-.07-1.55-.29-2.25-.65-.94.67-1.64,1.63-2,2.73-.09.29-.09.6,0,.89s.26.55.49.75c1.86-1,4.47-1.36,7.92-.6,4.53,1,4.7,1.55,4.81,1.88.03.12.04.24,0,.36-.03.12-.09.23-.18.31-.95,1-7.9.53-11.39-.33-.42-.1-.83-.25-1.21-.45-1.03.63-1.83,1.58-2.26,2.71-.29.73-.37,1.53-.23,2.3.18-.11.36-.2.55-.29,2.07-1,4.57-.82,7.66.5,2,.87,3,1.65,3.1,2.44,0,.2-.05.4-.15.58-.1.18-.25.32-.42.42-1.53,1-6.87.86-9.65-.62-.64-.35-1.17-.86-1.54-1.49-1.63,1.5-2.95,4.17-4.15,8.36-.04.09-.1.17-.18.23-.08.06-.17.09-.27.09ZM336.04,240.72c.28.52.7.94,1.22,1.22,2.26,1.2,6.7,1.47,8.36.8.34-.14.39-.25.39-.25,0,0-.05-.56-2.5-1.61-2.8-1.2-5-1.37-6.83-.52-.22.11-.43.23-.64.36ZM339.38,234.15l.25.07c3.26.75,6.61,1,9.94.75-1.18-.44-2.4-.77-3.64-1-2.15-.58-4.43-.52-6.55.18ZM340.64,228.53c.46.17.94.27,1.43.32,5,.59,9.39-.1,10-.73-.17-.15-.84-.58-3.32-1.05-2.79-.56-5.69-.03-8.11,1.46Z" style="fill: #8f3535; stroke-width: 0px;"/>
  <path d="M200.44,352.14c.66-.21.44-.85-.3-.85h-13.54c-25.78-2.73-43.79.93-32.44,1.79s-.8.68-9.09,3.82c-8.29,3.14,61.65,3.93,68,0,5.84-3.62-21.77-1.83-12.63-4.76Z" style="fill: #8f3535; stroke-width: 0px;"/>
  <path d="M297.38,356.13l-117.8-3.91-4.89-114.22,139.11,3.11-16.42,115.02Z" style="fill: #ee5858; stroke-width: 0px;"/>
  <path d="M216.36,353.94c-.13,0-.25-.05-.34-.13s-.15-.2-.16-.33l-9.44-114.72c0-.13.03-.26.12-.36.09-.1.21-.16.34-.18.13,0,.26.04.36.12.1.09.16.21.18.34l9.49,114.72c0,.07,0,.13-.02.19-.02.06-.05.12-.1.17-.04.05-.1.09-.15.12-.06.03-.12.05-.19.05h-.09Z" style="fill: #8f3535; stroke-width: 0px;"/>
  <path d="M297.38,356.13l31.66-4.82,9.97-106.21-25.21-3.99-16.42,115.02Z" style="fill: #ee5858; stroke-width: 0px;"/>
  <path d="M297.38,356.13l31.66-4.82,9.97-106.21-25.21-3.99-16.42,115.02Z" style="fill: #191c1f; isolation: isolate; opacity: .2; stroke-width: 0px;"/>
  <path d="M189.64,330.21l-2.9-67.87c-.07-1.68.2-3.35.8-4.92.6-1.57,1.52-2.99,2.69-4.19,1.17-1.2,2.58-2.14,4.14-2.78s3.22-.94,4.9-.9l88.06,2c1.73.04,3.44.45,5.01,1.19,1.57.75,2.96,1.82,4.08,3.14,1.12,1.32,1.95,2.87,2.43,4.54.48,1.67.6,3.42.36,5.13l-9.76,68.34c-.42,2.99-1.93,5.73-4.25,7.67-2.31,1.95-5.26,2.97-8.28,2.88l-75.39-2.5c-3.09-.1-6.04-1.36-8.24-3.53-2.2-2.18-3.5-5.1-3.64-8.2Z" style="fill: #8f3535; stroke-width: 0px;"/>
  <path d="M199.16,270.38l13.62.43-.11,3.51-8.53-.27-.08,2.62,7.91.25-.11,3.36-7.91-.26-.1,3.25,8.77.28-.12,3.72-13.87-.44.53-16.45Z" style="fill: #fff; stroke-width: 0px;"/>
  <path d="M215.31,287.36l.52-16.45,8.48.27c1.22,0,2.43.17,3.59.52.83.28,1.53.83,2,1.56.35.53.58,1.13.69,1.76.11.63.08,1.27-.07,1.89-.15.62-.43,1.2-.82,1.7-.39.51-.88.93-1.43,1.23-.57.29-1.18.5-1.81.6.46.15.91.37,1.31.64.29.27.55.57.78.9.26.31.49.65.68,1l2.31,4.85-5.74-.19-2.56-5.11c-.2-.49-.5-.93-.88-1.3-.36-.26-.79-.41-1.23-.42h-.45l-.21,6.67-5.15-.13ZM220.73,277.74l2.14.07c.45-.03.91-.09,1.35-.19.33-.05.64-.23.85-.49.22-.27.34-.6.35-.94.02-.23-.01-.46-.1-.67-.08-.21-.21-.41-.38-.57-.56-.36-1.22-.53-1.88-.49l-2.24-.07-.1,3.35Z" style="fill: #fff; stroke-width: 0px;"/>
  <path d="M233.19,287.89l.52-16.45,8.47.27c1.22,0,2.43.17,3.59.52.83.27,1.53.82,2,1.56.51.8.75,1.74.68,2.69,0,.8-.21,1.58-.62,2.27-.41.69-.99,1.25-1.69,1.63-.57.29-1.18.49-1.81.6.46.15.9.36,1.3.64.3.26.56.56.79.89.26.31.48.65.68,1l2.31,4.84-5.74-.18-2.56-5.11c-.21-.49-.5-.93-.88-1.3-.36-.27-.79-.42-1.24-.42h-.44l-.22,6.68-5.14-.13ZM238.6,278.27l2.15.06c.46-.02.91-.08,1.35-.18.33-.05.63-.22.84-.49.22-.26.35-.6.35-.94.02-.23,0-.46-.09-.67-.08-.21-.21-.41-.37-.57-.56-.37-1.22-.54-1.89-.49l-2.23-.07-.11,3.35Z" style="fill: #fff; stroke-width: 0px;"/>
  <path d="M250.23,280.25c-.08-1.15.1-2.3.52-3.37.42-1.07,1.07-2.04,1.91-2.82.84-.79,1.84-1.38,2.93-1.74,1.09-.36,2.25-.46,3.4-.32,1.15-.04,2.3.16,3.38.57,1.07.41,2.06,1.04,2.88,1.84.74.85,1.3,1.85,1.64,2.92.34,1.07.47,2.21.36,3.33,0,1.63-.38,3.25-1.12,4.7-.67,1.19-1.68,2.16-2.9,2.78-1.44.69-3.02.99-4.61.88-1.58.01-3.15-.33-4.58-1-1.22-.66-2.22-1.67-2.86-2.9-.76-1.51-1.09-3.19-.95-4.87ZM255.31,280.43c-.15,1.26.14,2.53.81,3.61.31.35.7.64,1.13.84.43.2.89.31,1.36.33.47.02.94-.06,1.38-.23.44-.17.85-.42,1.19-.75.74-1.12,1.09-2.46,1-3.8.13-1.21-.16-2.42-.83-3.43-.3-.35-.68-.63-1.1-.82-.42-.19-.88-.29-1.34-.29-.47-.03-.93.04-1.37.21-.43.17-.82.44-1.14.79-.76,1.02-1.14,2.27-1.09,3.54Z" style="fill: #fff; stroke-width: 0px;"/>
  <path d="M269.82,289.1l.52-16.46,8.47.27c1.22,0,2.43.17,3.59.52.82.28,1.53.83,2,1.56.5.8.74,1.74.68,2.69,0,.8-.21,1.59-.61,2.27-.41.69-.99,1.25-1.7,1.64-.57.28-1.18.48-1.81.59.46.15.9.37,1.3.65.3.26.56.56.79.89.26.31.49.65.68,1l2.31,4.85-5.74-.18-2.56-5.12c-.2-.48-.5-.92-.88-1.29-.36-.27-.79-.42-1.24-.43h-.44l-.22,6.68-5.14-.13ZM275.23,279.47l2.15.07c.46-.02.91-.08,1.35-.18.33-.05.63-.23.84-.49.24-.28.36-.63.35-1,.02-.23,0-.45-.09-.67-.08-.21-.21-.41-.37-.56-.56-.37-1.22-.54-1.89-.49l-2.23-.07-.11,3.39Z" style="fill: #fff; stroke-width: 0px;"/>
  <path d="M277.91,317.05c-.19,0-.37-.03-.55-.11-.17-.07-.33-.18-.45-.32l-8.56-9.37-9.24,8.44c-.26.24-.6.36-.94.34-.35-.01-.67-.17-.91-.42l-8.56-9.37-9.24,8.44c-.26.24-.6.36-.94.34-.35-.02-.67-.17-.91-.42l-8.57-9.37-9.23,8.44c-.14.12-.29.22-.47.27-.17.06-.35.08-.53.07-.35-.02-.67-.18-.91-.43l-8.56-9.36-9.23,8.43c-.26.24-.6.36-.95.34-.35-.01-.68-.17-.91-.42-.12-.13-.21-.28-.27-.44-.06-.16-.08-.33-.08-.51s.05-.34.13-.5c.07-.16.18-.29.31-.41l10.2-9.33c.26-.24.6-.36.95-.34.35.01.68.17.91.42l8.56,9.37,9.23-8.44c.26-.23.6-.35.95-.34.35.02.67.17.91.43l8.56,9.37,9.24-8.44c.13-.12.27-.21.44-.27.16-.06.33-.09.51-.08.17,0,.34.05.5.12.16.07.29.18.41.31l8.56,9.37,9.24-8.44c.26-.24.6-.36.94-.34.35.01.67.17.91.42l9.56,10.38c.17.19.28.43.32.68.04.25,0,.51-.1.75-.11.23-.28.43-.49.57-.22.14-.47.21-.72.21v-.04Z" style="fill: #fff; stroke-width: 0px;"/>
  <path d="M119.66,358.56l-6.26-2.99-5.58-27.17,3.03-3.33,8.81,33.49Z" style="fill: #ee5858; stroke-width: 0px;"/>
  <path d="M119.66,358.56l8.31-4.86-7.12-22.38-10-6.25,8.81,33.49Z" style="fill: #ee5858; stroke-width: 0px;"/>
  <path d="M119.66,358.56l8.31-4.86-7.12-22.38-10-6.25,8.81,33.49Z" style="fill: #191c1f; isolation: isolate; opacity: .2; stroke-width: 0px;"/>
  <path d="M255.91,363.5h-.69c-1.33-.04-2.58-.6-3.5-1.56s-1.4-2.25-1.37-3.57c.04-1.33.6-2.58,1.56-3.5s2.25-1.4,3.57-1.37c7.7.25,24-4.48,33.32-13.52.56-.55,1.25-.96,2-1.2,15.79-4.74,21.66,4.83,21.9,5.24l-8.6,5.09c.03.06.07.12.11.18-.09-.13-2.33-3-9.45-1.24-11.69,10.66-29.63,15.45-38.86,15.45Z" style="fill: #8f3535; stroke-width: 0px;"/>
  <path d="M255.3,370.14l-18.21-1.14-1.43-33.58,24.47.91-4.83,33.81Z" style="fill: #ee5858; stroke-width: 0px;"/>
  <path d="M255.3,370.14l4.26-4.24,2.64-20.93-2.07-8.64-4.83,33.81Z" style="fill: #ee5858; stroke-width: 0px;"/>
  <path d="M255.3,370.14l4.26-4.24,2.64-20.93-2.07-8.64-4.83,33.81Z" style="fill: #191c1f; isolation: isolate; opacity: .2; stroke-width: 0px;"/>
  <path d="M360.82,357.43c-.65,0-1.29-.21-1.81-.61-10.4-7.9-24.45-21.93-29.84-35.46-.08-.2-.14-.4-.17-.61-2.63-15.64-5.14-48.55-5.25-49.94-.03-.39.02-.79.14-1.17.12-.38.32-.72.58-1.02.52-.6,1.26-.98,2.06-1.04.8-.06,1.58.2,2.19.72s.98,1.26,1.04,2.06c0,.33,2.57,33.56,5.13,49.07,5.38,13.16,20,26.67,27.78,32.61.5.38.87.91,1.05,1.51.18.6.18,1.25-.03,1.84-.2.6-.58,1.11-1.1,1.48-.51.37-1.12.56-1.75.56h-.02Z" style="fill: #8f3535; stroke-width: 0px;"/>
  <path d="M374.69,358.94c-2.32,0-4.95-1.05-7.82-3.12-.64-.47-1.08-1.17-1.2-1.96-.12-.79.07-1.59.53-2.23.47-.65,1.17-1.08,1.96-1.2.79-.12,1.59.07,2.23.53,2.48,1.79,3.83,2,4.3,2,.8,0,1.56.32,2.12.88.56.56.88,1.32.88,2.12s-.32,1.56-.88,2.12c-.56.56-1.33.88-2.12.88v-.02Z" style="fill: #8f3535; stroke-width: 0px;"/>
  <path d="M367.71,355.73c3.21-9.53,16.37-7.65,20.91-6.23,3.88,1.13,7.6,2.74,11.07,4.8,2.45,1.6,2.49,4.29-.78,5.82-4,1.88-14.16.21-14.16.21,5.24,2.29,0,6-9.21,2.36-2.99-1.18-8.96-3.46-7.83-6.96Z" style="fill: #ee5858; stroke-width: 0px;"/>
  <path d="M335.77,274.89c-1.19,8.1-7.9,14.07-13.36,13.27-5.46-.8-5.68-8-4.49-16.14,1.19-8.14,3.35-14,8.81-13.2,5.46.8,10.23,8,9.04,16.07Z" style="fill: #8f3535; stroke-width: 0px;"/>
  <path d="M203.79,242.59c.45,0,.82-.37.82-.82s-.37-.82-.82-.82-.82.37-.82.82.37.82.82.82Z" style="fill: #8f3535; stroke-width: 0px;"/>
  <path d="M212.12,247.67c0,.16-.05.32-.14.46-.09.13-.22.24-.37.3-.15.06-.32.08-.47.05-.16-.03-.31-.11-.42-.22-.11-.11-.19-.26-.22-.42-.03-.16-.02-.32.05-.47.06-.15.17-.28.3-.37.14-.09.29-.14.46-.14.22,0,.43.09.58.24.15.15.24.36.24.58Z" style="fill: #8f3535; stroke-width: 0px;"/>
  <path d="M213.04,344.57c0,.16-.05.32-.14.46-.09.13-.22.24-.37.3s-.32.08-.47.05c-.16-.03-.31-.11-.42-.22-.12-.11-.19-.26-.22-.42-.03-.16-.02-.32.05-.47.06-.15.17-.28.3-.37.14-.09.29-.14.46-.14.22,0,.43.09.58.24.15.15.24.36.24.58Z" style="fill: #8f3535; stroke-width: 0px;"/>
  <path d="M220.55,350.48c0,.16-.05.32-.14.46-.09.13-.22.24-.37.3-.15.06-.32.08-.47.05-.16-.03-.31-.11-.42-.22-.11-.12-.19-.26-.22-.42-.03-.16-.02-.32.05-.47.06-.15.17-.28.3-.37.14-.09.29-.14.46-.14.22,0,.43.09.58.24.15.15.24.36.24.58Z" style="fill: #8f3535; stroke-width: 0px;"/>
  <path d="M79.17,360.61c-1.44-.07-2.85-.46-4.11-1.14-1.27-.68-2.37-1.64-3.22-2.81-.04-.05-.07-.12-.09-.18-.02-.07-.02-.13-.01-.2.01-.07.03-.13.07-.19.04-.06.08-.11.14-.15.06-.04.12-.07.19-.08.07-.01.14-.01.2,0,.07.01.13.04.19.08.06.04.1.09.14.15,1.87,2.7,6,4.13,7.8,3.28.18-.08.34-.19.47-.34-.91-.4-1.71-1.02-2.32-1.8-.61-.78-1.03-1.7-1.2-2.68-.23-1.27-.41-3,.63-3.22,1.44-.32,3.32,3.15,4,5.78.12.44.17.89.13,1.34.58.17,1.18.22,1.78.14.27-.02.53-.1.77-.22.24-.13.45-.3.61-.52-.66-.5-1.2-1.13-1.6-1.85-.4-.72-.64-1.52-.71-2.34-.38-2.74-.09-3.21.21-3.45.1-.07.21-.12.34-.13.12-.01.24,0,.35.06,1.07.45,2.36,4.33,2.61,6.53.03.23.03.46,0,.69.43.17.89.25,1.35.26.85.03,1.69-.19,2.41-.63-.14-.09-.27-.19-.4-.29-1-.89-1.46-2.31-1.28-4.33.14-1.57.49-2.43,1.12-2.7.2-.08.43-.1.64-.06.21.04.41.15.57.3.68.75,1.18,1.63,1.48,2.59.3.96.38,1.97.25,2.97-.09.42-.26.81-.51,1.15,1.84.32,4.42-.2,6.65-.75.07-.02.13-.02.2,0s.13.03.19.07c.06.04.11.08.15.14.04.05.07.12.08.18.02.07.02.13,0,.2-.01.07-.03.13-.07.19-.04.06-.08.11-.14.15-.05.04-.12.07-.18.08-2.71.67-5.63,1.22-7.69.62-1.01.76-2.24,1.17-3.5,1.16-.56,0-1.12-.11-1.64-.31-.23.36-.54.66-.91.88-.37.22-.78.35-1.21.39-.75.1-1.52.03-2.24-.19-.23.39-.58.7-1,.89-.54.22-1.11.32-1.69.3ZM78.31,352.33c-.14.68-.11,1.38.08,2.05.14.8.47,1.55.97,2.2.49.64,1.14,1.16,1.87,1.5-.01-.24-.05-.47-.12-.7-.78-2.86-2.28-4.83-2.8-5.05ZM83.88,351.46c0,.69.06,1.38.17,2.06.11,1.22.65,2.36,1.52,3.22-.25-1.85-.82-3.63-1.69-5.28ZM90.17,350.59s-.38.19-.52,1.86c-.14,1.67.15,2.82.93,3.49.18.15.39.28.6.38.26-.28.45-.63.54-1,.18-1.57-.25-3.16-1.19-4.43-.21-.26-.33-.3-.36-.3Z" style="fill: #8f3535; stroke-width: 0px;"/>
  <path d="M225.53,368.17l2.71-4.7-2.71-4.7h-2.9l1.64,4.7-1.64,4.7h2.9Z" style="fill: #8f3535; stroke-width: 0px;"/>
  <path d="M222.82,365.92c-.33.02-.67-.03-.98-.14-.32-.11-.6-.29-.85-.52-.24-.23-.44-.51-.57-.81-.13-.31-.2-.64-.2-.97s.07-.67.2-.97c.13-.31.33-.58.57-.81.25-.23.53-.41.85-.52.32-.11.65-.16.98-.14l-4.6-.92-1.23,3.72,2.06,3.14,3.77-1.05Z" style="fill: #8f3535; stroke-width: 0px;"/>
  <path d="M223.22,358.77h-5.43l-2.71,4.7,2.71,4.7h5.43l2.71-4.7-2.71-4.7ZM220.51,365.92c-.49,0-.96-.14-1.36-.41-.4-.27-.72-.65-.91-1.1-.19-.45-.24-.94-.14-1.42s.33-.91.67-1.26c.34-.34.78-.58,1.25-.67.48-.1.97-.05,1.42.14.45.19.83.5,1.1.9.27.4.41.88.41,1.36,0,.65-.26,1.27-.71,1.73-.46.46-1.08.72-1.73.72Z" style="fill: #ee5858; stroke-width: 0px;"/>
  <path d="M414.55,358.45l-2.01-3.49,2.01-3.49h2.15l-1.21,3.49,1.21,3.49h-2.15Z" style="fill: #ee5858; stroke-width: 0px;"/>
  <path d="M416.56,356.78c.25.02.5-.01.74-.1.24-.08.45-.21.64-.38.18-.17.33-.38.43-.61s.15-.48.15-.73-.05-.5-.15-.73c-.1-.23-.25-.44-.43-.61-.18-.17-.4-.3-.64-.38-.24-.08-.49-.12-.74-.1l3.42-.68.91,2.76-1.52,2.33-2.81-.78Z" style="fill: #ee5858; stroke-width: 0px;"/>
  <path d="M416.27,351.47h4l2,3.49-2,3.49h-4l-2-3.49,2-3.49ZM418.27,356.78c.36,0,.71-.1,1.01-.3.3-.2.54-.48.68-.81.14-.33.18-.7.11-1.05s-.24-.68-.5-.93c-.25-.26-.58-.43-.93-.5-.35-.07-.72-.04-1.05.1-.33.14-.62.37-.82.67-.2.3-.31.65-.31,1.01,0,.24.05.48.14.7.09.22.23.42.39.59.17.17.37.3.59.39s.46.14.7.14h-.01Z" style="fill: #8f3535; stroke-width: 0px;"/>
  <path d="M339.66,363.09h4.52c.57,0,1.11-.23,1.51-.63.4-.4.62-.94.62-1.51s-.22-1.11-.62-1.51c-.4-.4-.94-.63-1.51-.63h-4.52c-.57,0-1.11.23-1.51.63-.4.4-.63.95-.63,1.51s.23,1.11.63,1.51c.4.4.95.63,1.51.63Z" style="fill: #8f3535; stroke-width: 0px;"/>
  <path d="M332.39,359.05c.42-.76,1.05-1.39,1.82-1.79.77-.41,1.64-.58,2.51-.5.87.08,1.69.42,2.37.96.68.54,1.18,1.28,1.45,2.1.27.83.29,1.72.06,2.56-.23.84-.7,1.59-1.36,2.17s-1.46.95-2.32,1.07-1.74-.01-2.53-.39c-1.08-.56-1.9-1.52-2.27-2.68-.38-1.16-.28-2.42.27-3.5Z" style="fill: #ee5858; stroke-width: 0px;"/>
  <path d="M333.61,365.23l1.24.58,4.31-9.14-1.24-.58-4.31,9.14Z" style="fill: #8f3535; stroke-width: 0px;"/>
</svg>