<svg width="351" height="19" viewBox="0 0 351 19" fill="none" xmlns="http://www.w3.org/2000/svg">
<path d="M7.51003 11.42C6.07038 11.3527 4.66425 10.9628 3.39553 10.2791C2.1268 9.5954 1.0279 8.63537 0.180025 7.46995C0.138457 7.41633 0.108235 7.35481 0.0912038 7.28914C0.0741724 7.22346 0.0706868 7.155 0.0809575 7.08793C0.0912283 7.02087 0.115044 6.9566 0.15095 6.89903C0.186855 6.84146 0.234101 6.79179 0.289812 6.75306C0.345523 6.71434 0.408528 6.68735 0.475001 6.67375C0.541473 6.66015 0.61002 6.66025 0.676462 6.67399C0.742905 6.68774 0.805857 6.71486 0.861483 6.75371C0.917109 6.79255 0.964246 6.8423 1.00002 6.89995C2.87002 9.59995 7.00003 11.0299 8.80003 10.1799C8.9803 10.1035 9.14096 9.98724 9.27002 9.83995C8.3605 9.4397 7.56358 8.82159 6.94966 8.04024C6.33573 7.25888 5.92372 6.33833 5.75002 5.35994C5.52002 4.08994 5.34002 2.35997 6.38002 2.13997C7.82002 1.81997 9.70002 5.28997 10.38 7.91997C10.5032 8.35525 10.5472 8.80912 10.51 9.25996C11.0868 9.43184 11.6935 9.47954 12.29 9.39995C12.5588 9.37926 12.8204 9.30278 13.058 9.17537C13.2956 9.04796 13.504 8.87242 13.67 8.65996C13.0119 8.16335 12.466 7.53346 12.0679 6.81144C11.6699 6.08943 11.4286 5.29156 11.36 4.46995C10.98 1.72995 11.27 1.25994 11.57 1.01994C11.6672 0.945396 11.7832 0.899369 11.9051 0.887006C12.027 0.874644 12.1498 0.896457 12.26 0.949964C13.33 1.39996 14.62 5.27996 14.87 7.47996C14.9 7.70899 14.9 7.94094 14.87 8.16997C15.3011 8.33569 15.7582 8.42369 16.22 8.42994C17.068 8.46293 17.9067 8.24368 18.63 7.79994C18.49 7.70994 18.36 7.60996 18.23 7.50996C17.23 6.61996 16.77 5.19994 16.95 3.17994C17.09 1.60994 17.44 0.749963 18.07 0.479963C18.2733 0.398411 18.4958 0.377662 18.7107 0.420271C18.9255 0.462879 19.1233 0.566999 19.28 0.719953C19.9551 1.46535 20.4595 2.34891 20.7583 3.30913C21.0571 4.26935 21.143 5.28315 21.01 6.27995C20.9232 6.69502 20.7494 7.08696 20.5 7.42994C22.34 7.74994 24.92 7.22994 27.15 6.67994C27.2157 6.66419 27.2838 6.66153 27.3505 6.6721C27.4172 6.68267 27.4812 6.70627 27.5387 6.74156C27.5963 6.77685 27.6464 6.82313 27.686 6.87776C27.7257 6.93239 27.7543 6.99429 27.77 7.05995C27.7858 7.12561 27.7885 7.19373 27.7779 7.26042C27.7673 7.32711 27.7437 7.39108 27.7084 7.44865C27.6731 7.50622 27.6269 7.55627 27.5722 7.59596C27.5176 7.63565 27.4557 7.66419 27.39 7.67994C24.68 8.34994 21.76 8.89994 19.7 8.29994C18.6945 9.06438 17.4631 9.47248 16.2 9.45994C15.6395 9.45256 15.0846 9.34766 14.56 9.14995C14.3274 9.50972 14.0153 9.81133 13.6477 10.0315C13.2802 10.2517 12.867 10.3846 12.44 10.42C11.6883 10.5166 10.9247 10.4518 10.2 10.23C9.96672 10.6229 9.61735 10.9338 9.20002 11.1199C8.66367 11.3363 8.08809 11.4385 7.51003 11.42ZM6.65003 3.13997C6.5117 3.81981 6.53914 4.52296 6.73003 5.18995C6.87109 5.98957 7.20288 6.74337 7.69727 7.38746C8.19166 8.03156 8.83406 8.54698 9.57002 8.88997C9.55604 8.65291 9.51579 8.41813 9.45002 8.18995C8.67002 5.32995 7.17003 3.35997 6.65003 3.13997ZM12.22 2.26994C12.2265 2.95983 12.2834 3.64832 12.39 4.32994C12.5003 5.54916 13.0388 6.68994 13.91 7.54994C13.6639 5.70372 13.0917 3.91593 12.22 2.26994ZM18.51 1.39995C18.51 1.39995 18.13 1.58996 17.99 3.25996C17.85 4.92996 18.14 6.07995 18.92 6.74995C19.1046 6.89948 19.306 7.02701 19.52 7.12996C19.783 6.84859 19.969 6.50417 20.06 6.12996C20.2381 4.55591 19.8129 2.97288 18.87 1.69996C18.66 1.43996 18.54 1.39995 18.51 1.39995Z" fill="#8F3535"/>
<path d="M153.87 18.98L156.58 14.28L153.87 9.57996H150.97L152.61 14.28L150.97 18.98H153.87Z" fill="#8F3535"/>
<path d="M151.16 16.7299C150.826 16.7513 150.491 16.7039 150.176 16.5907C149.86 16.4775 149.572 16.3009 149.327 16.0718C149.083 15.8426 148.888 15.5658 148.755 15.2585C148.622 14.9512 148.554 14.6198 148.554 14.2849C148.554 13.95 148.622 13.6186 148.755 13.3113C148.888 13.004 149.083 12.7272 149.327 12.498C149.572 12.2689 149.86 12.0923 150.176 11.9791C150.491 11.8659 150.826 11.8185 151.16 11.8399L146.56 10.9199L145.33 14.6399L147.39 17.7799L151.16 16.7299Z" fill="#8F3535"/>
<path d="M151.56 9.57996H146.13L143.42 14.28L146.13 18.98H151.56L154.27 14.28L151.56 9.57996ZM148.85 16.73C148.365 16.732 147.89 16.5899 147.486 16.3219C147.082 16.0539 146.766 15.672 146.579 15.2245C146.392 14.777 146.343 14.2841 146.436 13.8082C146.529 13.3323 146.762 12.8948 147.104 12.5511C147.446 12.2075 147.883 11.9732 148.358 11.8778C148.834 11.7825 149.327 11.8304 149.775 12.0155C150.224 12.2007 150.607 12.5147 150.876 12.9178C151.146 13.3209 151.29 13.795 151.29 14.28C151.29 14.928 151.033 15.5497 150.576 16.0089C150.119 16.468 149.498 16.7273 148.85 16.73Z" fill="#EE5858"/>
<path d="M342.89 9.25992L340.88 5.7699L342.89 2.27991H345.04L343.83 5.7699L345.04 9.25992H342.89Z" fill="#EE5858"/>
<path d="M344.9 7.5899C345.15 7.60845 345.401 7.5753 345.637 7.49249C345.873 7.40969 346.09 7.27899 346.273 7.10864C346.457 6.93829 346.603 6.73193 346.703 6.50244C346.803 6.27295 346.855 6.02527 346.855 5.7749C346.855 5.52454 346.803 5.27689 346.703 5.04739C346.603 4.8179 346.457 4.61151 346.273 4.44116C346.09 4.27081 345.873 4.14015 345.637 4.05734C345.401 3.97454 345.15 3.94135 344.9 3.9599L348.32 3.27991L349.23 6.03992L347.71 8.3699L344.9 7.5899Z" fill="#EE5858"/>
<path d="M344.61 2.27991H348.61L350.61 5.7699L348.61 9.25992H344.61L342.61 5.7699L344.61 2.27991ZM346.61 7.5899C346.97 7.59189 347.323 7.48683 347.624 7.28806C347.924 7.08928 348.159 6.80574 348.299 6.47336C348.438 6.14098 348.475 5.77472 348.406 5.42102C348.337 5.06732 348.165 4.74207 347.91 4.48654C347.656 4.23101 347.332 4.0567 346.979 3.98566C346.625 3.91462 346.259 3.95007 345.926 4.08752C345.593 4.22498 345.308 4.45824 345.107 4.75775C344.907 5.05726 344.8 5.40951 344.8 5.7699C344.799 6.00927 344.845 6.24655 344.936 6.46796C345.027 6.68937 345.161 6.89055 345.33 7.05981C345.499 7.22908 345.701 7.36308 345.922 7.45407C346.143 7.54506 346.381 7.59123 346.62 7.5899H346.61Z" fill="#8F3535"/>
<path d="M268 13.8999H272.52C273.086 13.8972 273.628 13.6706 274.027 13.2696C274.426 12.8685 274.65 12.3257 274.65 11.7599C274.65 11.1941 274.426 10.6512 274.027 10.2502C273.628 9.84914 273.086 9.62252 272.52 9.61987H268C267.432 9.61987 266.888 9.84535 266.487 10.2467C266.085 10.648 265.86 11.1923 265.86 11.7599C265.86 12.3275 266.085 12.8717 266.487 13.2731C266.888 13.6744 267.432 13.8999 268 13.8999Z" fill="#8F3535"/>
<path d="M260.73 9.85999C261.149 9.0971 261.783 8.47366 262.553 8.06653C263.322 7.65941 264.194 7.48642 265.061 7.56888C265.927 7.65134 266.751 7.98567 267.43 8.53061C268.109 9.07556 268.614 9.80729 268.882 10.6356C269.15 11.4639 269.169 12.3526 268.938 13.192C268.707 14.0314 268.236 14.7848 267.582 15.3594C266.928 15.934 266.12 16.3047 265.258 16.4256C264.396 16.5465 263.517 16.4125 262.73 16.04C261.649 15.4824 260.831 14.5197 260.457 13.3621C260.082 12.2044 260.18 10.9455 260.73 9.85999Z" fill="#EE5858"/>
<path d="M261.95 16.0387L263.189 16.6229L267.496 7.48717L266.256 6.90299L261.95 16.0387Z" fill="#8F3535"/>
</svg>
