<svg width="500" height="344" viewBox="0 0 500 344" fill="none" xmlns="http://www.w3.org/2000/svg">
<path d="M500 327.4H0V327.65H500V327.4Z" fill="#FDEEEE"/>
<path d="M449.9 343.49H428.22V343.74H449.9V343.49Z" fill="#FDEEEE"/>
<path d="M344.67 338.31H310.56V338.56H344.67V338.31Z" fill="#FDEEEE"/>
<path d="M441.12 334.21H396.59V334.46H441.12V334.21Z" fill="#FDEEEE"/>
<path d="M173.02 339.25H161.88V339.5H173.02V339.25Z" fill="#FDEEEE"/>
<path d="M152.97 339.25H114.58V339.5H152.97V339.25Z" fill="#FDEEEE"/>
<path d="M94.01 335.03H66.31V335.28H94.01V335.03Z" fill="#FDEEEE"/>
<path d="M237 282.8H43.91C42.3974 282.797 40.9476 282.195 39.8789 281.124C38.8102 280.053 38.21 278.603 38.21 277.09V5.66C38.2232 4.15602 38.8292 2.71798 39.8965 1.65822C40.9637 0.598458 42.406 0.00257639 43.91 0H237C238.514 0 239.967 0.601588 241.038 1.67242C242.108 2.74325 242.71 4.19561 242.71 5.71V277.09C242.71 278.604 242.108 280.057 241.038 281.128C239.967 282.198 238.514 282.8 237 282.8ZM43.91 0.200001C42.4637 0.20265 41.0775 0.779065 40.0557 1.80273C39.0339 2.82639 38.46 4.21365 38.46 5.66V277.09C38.46 278.536 39.0339 279.924 40.0557 280.947C41.0775 281.971 42.4637 282.547 43.91 282.55H237C238.447 282.547 239.835 281.971 240.858 280.948C241.881 279.924 242.457 278.537 242.46 277.09V5.66C242.457 4.21273 241.881 2.82549 240.858 1.80212C239.835 0.77874 238.447 0.202644 237 0.200001H43.91Z" fill="#FDEEEE"/>
<path d="M453.31 282.8H260.21C258.696 282.797 257.246 282.195 256.175 281.125C255.105 280.054 254.503 278.604 254.5 277.09V5.66C254.516 4.15511 255.124 2.71708 256.193 1.65759C257.262 0.598109 258.705 0.00254829 260.21 0H453.31C454.812 0.0052045 456.252 0.602249 457.317 1.66173C458.382 2.72121 458.987 4.15775 459 5.66V277.09C459 278.601 458.401 280.05 457.335 281.121C456.268 282.191 454.821 282.795 453.31 282.8ZM260.21 0.200001C258.763 0.202644 257.375 0.77874 256.352 1.80212C255.329 2.82549 254.753 4.21273 254.75 5.66V277.09C254.753 278.537 255.329 279.924 256.352 280.948C257.375 281.971 258.763 282.547 260.21 282.55H453.31C454.757 282.547 456.145 281.971 457.168 280.948C458.191 279.924 458.767 278.537 458.77 277.09V5.66C458.767 4.21273 458.191 2.82549 457.168 1.80212C456.145 0.77874 454.757 0.202644 453.31 0.200001H260.21Z" fill="#FDEEEE"/>
<path d="M216.07 145.88L216.52 132.74L208.46 130.1C208.113 125.647 207.391 121.231 206.3 116.9L213.14 111.9L208.5 99.5599L200.04 100.24C198.034 96.2641 195.692 92.467 193.04 88.8899L197.42 81.5799L188.42 71.9699L180.86 75.8399C177.46 72.934 173.828 70.3119 170 67.9999L171.22 59.5999L159.22 54.1599L153.72 60.5999C149.477 59.2426 145.129 58.2392 140.72 57.5999L138.72 49.3699L125.54 48.9199L122.94 56.9899C118.491 57.3397 114.079 58.0588 109.75 59.1399L104.67 52.3399L92.33 56.9499L93.01 65.4099C89.0363 67.4463 85.2397 69.8111 81.66 72.4799L74.3 67.9999L64.65 76.9999L68.52 84.5999C65.6134 87.9824 63.0037 91.6092 60.72 95.4399L52.33 94.1799L46.85 106.18L53.33 111.67C51.9631 115.91 50.9595 120.259 50.33 124.67L42 126.76L41.55 139.9L49.65 142.54C49.985 146.99 50.7044 151.403 51.8 155.73L44.96 160.73L49.61 173.08L58.07 172.4C60.0707 176.379 62.4128 180.176 65.07 183.75L60.68 191.06L69.68 200.67L77.24 196.8C80.6306 199.705 84.2564 202.324 88.08 204.63L86.82 213.02L98.82 218.47L104.35 212.03C108.593 213.399 112.941 214.42 117.35 215.08L119.35 223.31L132.53 223.76L135.13 215.69C139.581 215.336 143.996 214.617 148.33 213.54L153.33 220.34L165.67 215.73L165.03 207.27C168.996 205.221 172.792 202.856 176.38 200.2L183.65 204.58L193.3 195.58L189.43 187.98C192.338 184.598 194.947 180.971 197.23 177.14L205.62 178.4L211.1 166.4L204.62 160.9C206.01 156.663 207.03 152.313 207.67 147.9L216.07 145.88ZM127.28 188.45C116.968 188.102 106.991 184.703 98.6108 178.683C90.2307 172.664 83.8242 164.294 80.2016 154.633C76.579 144.972 75.9031 134.453 78.2594 124.408C80.6157 114.363 85.8983 105.242 93.439 98.1993C100.98 91.1568 110.44 86.5089 120.622 84.8435C130.805 83.1782 141.253 84.5703 150.644 88.8437C160.036 93.1171 167.949 100.08 173.382 108.851C178.816 117.622 181.526 127.808 181.17 138.12C180.695 151.939 174.752 165.005 164.646 174.443C154.54 183.881 141.1 188.919 127.28 188.45Z" fill="#FDEEEE"/>
<path d="M441 102.42L444.31 99.33L443 96.72C443.999 95.5505 444.899 94.2994 445.69 92.98L448.59 93.41L450.46 89.27L448.24 87.38C448.718 85.9162 449.069 84.414 449.29 82.89L452.14 82.18L452.28 77.64L449.5 76.74C449.378 75.2024 449.13 73.6773 448.76 72.18L451.11 70.43L449.51 66.18L446.6 66.41C445.898 65.0393 445.086 63.7282 444.17 62.49L445.68 59.99L442.57 56.67L439.97 58C438.799 57.003 437.548 56.1033 436.23 55.31L436.65 52.41L432.52 50.52L430.62 52.75C429.153 52.2933 427.652 51.9589 426.13 51.75L425.42 48.91L420.88 48.74L419.97 51.54C418.438 51.6571 416.92 51.9046 415.43 52.28L413.69 49.93L409.43 51.52L409.67 54.44C408.295 55.1349 406.984 55.9479 405.75 56.87L403.23 55.36L399.91 58.45L401.2 61C400.193 62.1661 399.29 63.4175 398.5 64.74L395.61 64.31L393.73 68.45L395.96 70.35C395.498 71.8116 395.163 73.3105 394.96 74.83L392.1 75.54L391.96 80.08L394.75 80.98C394.864 82.5179 395.108 84.0434 395.48 85.54L393.12 87.28L394.72 91.53L397.64 91.31C398.342 92.6807 399.155 93.9917 400.07 95.23L398.56 97.73L401.67 101.05L404.27 99.72C405.439 100.72 406.69 101.62 408.01 102.41L407.58 105.3L411.72 107.19L413.62 104.97C415.088 105.422 416.589 105.756 418.11 105.97L418.82 108.81L423.36 108.98L424.27 106.18C425.802 106.064 427.321 105.816 428.81 105.44L430.55 107.79L434.81 106.2L434.58 103.28C435.951 102.584 437.259 101.771 438.49 100.85L441 102.42ZM417.38 83.29C416.507 82.3543 415.931 81.1806 415.725 79.9174C415.519 78.6541 415.692 77.3582 416.222 76.1934C416.753 75.0287 417.617 74.0475 418.705 73.374C419.794 72.7004 421.057 72.3648 422.337 72.4096C423.616 72.4544 424.853 72.8775 425.891 73.6255C426.93 74.3735 427.723 75.4128 428.171 76.6118C428.619 77.8108 428.701 79.1157 428.407 80.3614C428.113 81.6071 427.457 82.7376 426.52 83.61C425.898 84.196 425.167 84.653 424.367 84.9544C423.568 85.2558 422.717 85.3957 421.863 85.3659C421.009 85.3362 420.17 85.1374 419.394 84.781C418.617 84.4247 417.919 83.9179 417.34 83.29H417.38Z" fill="#FDEEEE"/>
<path d="M320 237.34L309.66 230.19C308.646 226.467 307.252 222.858 305.5 219.42L308.15 209.02L293.15 192.96L282.59 194.89C279.277 192.905 275.768 191.267 272.12 190L265.7 179.19L243.7 178.44L236.56 188.78C232.841 189.793 229.236 191.183 225.8 192.93L215.4 190.28L199.34 205.28L201.27 215.82C199.287 219.14 197.652 222.655 196.39 226.31L185.58 232.73L184.83 254.73L195.18 261.87C196.177 265.613 197.568 269.24 199.33 272.69L196.65 283L211.65 299.06L222.14 297.14C225.478 299.127 229.009 300.769 232.68 302.04L239.09 312.83L261.09 313.59L268.22 303.25C271.972 302.237 275.611 300.843 279.08 299.09L289.42 301.73L305.49 286.73L303.56 276.19C305.549 272.87 307.185 269.351 308.44 265.69L319.25 259.27L320 237.34ZM251.55 270.73C246.666 270.563 241.941 268.952 237.973 266.1C234.005 263.248 230.971 259.283 229.256 254.707C227.541 250.131 227.221 245.149 228.337 240.392C229.453 235.634 231.955 231.314 235.525 227.978C239.096 224.642 243.576 222.44 248.399 221.649C253.221 220.859 258.17 221.517 262.619 223.539C267.068 225.561 270.817 228.857 273.393 233.01C275.969 237.163 277.255 241.986 277.09 246.87C276.861 253.42 274.041 259.612 269.251 264.085C264.46 268.559 258.091 270.949 251.54 270.73H251.55Z" fill="#FDEEEE"/>
<path d="M343.55 175H343.48L326.16 174.41C325.809 174.404 325.466 174.309 325.161 174.134C324.857 173.959 324.602 173.71 324.42 173.41L319.75 165.56C317.233 164.639 314.798 163.509 312.47 162.18L305 163.47C304.652 163.534 304.293 163.508 303.958 163.397C303.622 163.285 303.32 163.09 303.08 162.83L291.25 150.17C291.002 149.908 290.825 149.586 290.738 149.236C290.65 148.885 290.654 148.518 290.75 148.17L292.64 140.76C291.469 138.359 290.512 135.859 289.78 133.29L282.25 128.09C281.958 127.889 281.721 127.618 281.562 127.302C281.403 126.985 281.327 126.634 281.34 126.28L281.93 108.96C281.942 108.61 282.039 108.269 282.213 107.965C282.388 107.662 282.634 107.406 282.93 107.22L290.8 102.55C291.708 100.039 292.835 97.6126 294.17 95.3L292.79 87.77C292.725 87.4204 292.75 87.0602 292.862 86.7228C292.974 86.3854 293.169 86.0817 293.43 85.84L306.09 74.02C306.352 73.7708 306.673 73.593 307.023 73.5037C307.374 73.4144 307.741 73.4166 308.09 73.51L315.53 75.41C317.925 74.2384 320.418 73.2781 322.98 72.54L328.18 65.01C328.373 64.7109 328.643 64.4688 328.961 64.3088C329.279 64.1488 329.635 64.0767 329.99 64.1L347.3 64.7C347.652 64.7074 347.996 64.8028 348.302 64.9775C348.608 65.1522 348.865 65.4005 349.05 65.7L353.72 73.56C356.219 74.4775 358.635 75.6083 360.94 76.94L368.5 75.55C368.848 75.4853 369.207 75.5101 369.543 75.6221C369.878 75.734 370.18 75.9294 370.42 76.19L382.25 88.85C382.497 89.1132 382.672 89.4351 382.759 89.7851C382.847 90.1351 382.844 90.5016 382.75 90.85L380.85 98.28C382.021 100.676 382.985 103.169 383.73 105.73L391.25 110.93C391.542 111.13 391.779 111.402 391.938 111.718C392.097 112.034 392.173 112.386 392.16 112.74L391.57 130.05C391.558 130.401 391.461 130.744 391.287 131.049C391.112 131.354 390.866 131.612 390.57 131.8L382.7 136.47C381.786 138.975 380.659 141.398 379.33 143.71L380.71 151.25C380.775 151.598 380.75 151.957 380.638 152.293C380.526 152.628 380.331 152.93 380.07 153.17L367.33 165C367.068 165.248 366.746 165.425 366.396 165.512C366.045 165.6 365.678 165.596 365.33 165.5L357.93 163.61C355.519 164.776 353.013 165.736 350.44 166.48L345.29 174C345.104 174.297 344.849 174.543 344.545 174.718C344.242 174.892 343.9 174.989 343.55 175ZM327.46 170.23L342.46 170.74L347.46 163.55C347.737 163.13 348.162 162.83 348.65 162.71C351.464 161.94 354.194 160.892 356.8 159.58C357.254 159.361 357.771 159.308 358.26 159.43L365.26 161.22L376.26 150.97L375 143.74C374.903 143.235 374.995 142.711 375.26 142.27C376.745 139.794 377.968 137.17 378.91 134.44C379.069 133.945 379.403 133.525 379.85 133.26L387.38 128.8L387.89 113.8L380.69 108.8C380.311 108.541 380.026 108.165 379.88 107.73C379.88 107.68 379.88 107.62 379.88 107.56C379.11 104.796 378.064 102.116 376.76 99.56C376.529 99.1024 376.472 98.5763 376.6 98.08L378.4 91L368.15 80L360.96 81.32C360.458 81.411 359.94 81.3187 359.5 81.06C357.019 79.5717 354.392 78.342 351.66 77.39C351.503 77.3397 351.352 77.2727 351.21 77.19C350.922 77.0101 350.682 76.763 350.51 76.47L346 68.92L331 68.4L326 75.61C325.702 76.0326 325.262 76.3343 324.76 76.46C321.975 77.221 319.274 78.263 316.7 79.57C316.246 79.8015 315.723 79.8585 315.23 79.73L308.15 77.93L297.15 88.18L298.47 95.35C298.548 95.8022 298.482 96.2677 298.28 96.68L298.18 96.85C296.693 99.3356 295.469 101.97 294.53 104.71C294.364 105.18 294.039 105.576 293.61 105.83L286.08 110.3L285.57 125.3L292.78 130.3C293.191 130.581 293.489 130.999 293.62 131.48C294.37 134.288 295.412 137.01 296.73 139.6C296.801 139.747 296.858 139.902 296.9 140.06C296.975 140.389 296.975 140.731 296.9 141.06L295.1 148.06L305.35 159.06L312.49 157.75C312.989 157.659 313.504 157.751 313.94 158.01C316.44 159.495 319.083 160.725 321.83 161.68C322.325 161.827 322.745 162.16 323 162.61L327.46 170.23ZM336.73 151.26C336.36 151.26 335.99 151.26 335.62 151.26C327.307 151.114 319.388 147.69 313.588 141.734C307.787 135.778 304.573 127.771 304.646 119.457C304.719 111.143 308.073 103.195 313.978 97.3419C319.883 91.4888 327.861 88.2048 336.175 88.2048C344.489 88.2048 352.467 91.4888 358.372 97.3419C364.277 103.195 367.631 111.143 367.704 119.457C367.777 127.771 364.563 135.778 358.762 141.734C352.962 147.69 345.043 151.114 336.73 151.26ZM336.73 92.17C329.465 92.2952 322.545 95.2851 317.474 100.489C312.403 105.692 309.593 112.688 309.656 119.953C309.719 127.219 312.649 134.165 317.808 139.28C322.968 144.396 329.939 147.266 337.205 147.266C344.471 147.266 351.442 144.396 356.602 139.28C361.761 134.165 364.691 127.219 364.754 119.953C364.817 112.688 362.007 105.692 356.936 100.489C351.865 95.2851 344.944 92.2952 337.68 92.17H336.73Z" fill="#FDEEEE"/>
<path d="M383.44 50.3199L376.26 48.3999L374.34 41.2199L377.15 38.4199L380.11 44.5499L386.25 47.5199L383.44 50.3199Z" fill="#FDEEEE"/>
<path d="M383.88 45.5199C384.191 45.2094 384.437 44.8406 384.605 44.4349C384.773 44.0291 384.86 43.5942 384.86 43.1549C384.86 42.7157 384.773 42.2808 384.605 41.875C384.437 41.4692 384.191 41.1005 383.88 40.7899C383.569 40.4794 383.201 40.233 382.795 40.0649C382.389 39.8968 381.954 39.8103 381.515 39.8103C381.076 39.8103 380.641 39.8968 380.235 40.0649C379.829 40.233 379.461 40.4794 379.15 40.7899L382.72 35.4299L387.5 37.8499L388.55 42.8499L383.88 45.5199Z" fill="#FDEEEE"/>
<path d="M376.58 39L381.84 33.74L389 35.65L390.93 42.82L385.67 48.08L378.5 46.15L376.58 39ZM386.13 43.3C386.598 42.8314 386.917 42.2344 387.046 41.5847C387.175 40.9349 387.108 40.2615 386.855 39.6496C386.601 39.0377 386.172 38.5147 385.621 38.1467C385.07 37.7788 384.422 37.5824 383.76 37.5824C383.098 37.5824 382.45 37.7788 381.899 38.1467C381.348 38.5147 380.919 39.0377 380.665 39.6496C380.412 40.2615 380.345 40.9349 380.474 41.5847C380.603 42.2344 380.922 42.8314 381.39 43.3C382.024 43.9215 382.877 44.2679 383.764 44.2642C384.652 44.2604 385.502 43.9068 386.13 43.28V43.3Z" fill="#FCDEDE"/>
<path d="M90.22 241.71L94.07 240.67L95.1 236.82L93.6 235.32L92.01 238.61L88.71 240.2L90.22 241.71Z" fill="#FDEEEE"/>
<path d="M90 239.13C89.6991 238.786 89.5401 238.341 89.5553 237.885C89.5704 237.428 89.7585 236.994 90.0815 236.671C90.4044 236.348 90.8381 236.16 91.2946 236.145C91.7512 236.13 92.1963 236.289 92.54 236.59L90.63 233.72L88 235L87.44 237.7L90 239.13Z" fill="#FDEEEE"/>
<path d="M93.9 235.62L91.08 232.8L87.23 233.8L86.23 237.65L89 240.5L92.85 239.5L93.9 235.62ZM88.78 237.93C88.5946 237.768 88.4445 237.569 88.339 237.346C88.2335 237.124 88.1749 236.882 88.1667 236.635C88.1585 236.389 88.201 236.144 88.2915 235.915C88.3821 235.685 88.5187 235.477 88.6929 235.303C88.8672 235.129 89.0753 234.992 89.3045 234.902C89.5337 234.811 89.779 234.769 90.0253 234.777C90.2716 234.785 90.5136 234.844 90.7363 234.949C90.959 235.055 91.1577 235.205 91.32 235.39C91.6209 235.734 91.7799 236.179 91.7647 236.635C91.7496 237.092 91.5615 237.526 91.2385 237.849C90.9155 238.172 90.4818 238.36 90.0253 238.375C89.5688 238.39 89.1236 238.231 88.78 237.93Z" fill="#FCDEDE"/>
<path d="M76.36 30.66L79.56 33.86C79.9602 34.2533 80.4989 34.4737 81.06 34.4737C81.6211 34.4737 82.1598 34.2533 82.56 33.86C82.9509 33.4586 83.1697 32.9204 83.1697 32.36C83.1697 31.7997 82.9509 31.2615 82.56 30.86L79.37 27.67C78.9685 27.2791 78.4303 27.0603 77.87 27.0603C77.3096 27.0603 76.7714 27.2791 76.37 27.67C75.9783 28.0685 75.758 28.6043 75.7562 29.163C75.7543 29.7217 75.971 30.259 76.36 30.66Z" fill="#FCDEDE"/>
<path d="M74.11 22.71C74.945 22.4778 75.8296 22.4945 76.6553 22.7581C77.481 23.0216 78.2117 23.5206 78.7578 24.1936C79.3039 24.8666 79.6415 25.6845 79.7293 26.5467C79.817 27.409 79.6511 28.2781 79.2518 29.0474C78.8526 29.8166 78.2373 30.4526 77.4817 30.8771C76.7261 31.3016 75.8629 31.4962 74.9983 31.437C74.1336 31.3778 73.305 31.0674 72.6142 30.5439C71.9235 30.0204 71.4007 29.3065 71.11 28.49C70.9254 27.9136 70.8567 27.3064 70.9077 26.7032C70.9588 26.1001 71.1286 25.5131 71.4074 24.9759C71.6862 24.4387 72.0686 23.9619 72.5324 23.573C72.9962 23.1842 73.5324 22.8909 74.11 22.71Z" fill="#FDEEEE"/>
<path d="M70.6298 27.9546L71.093 29.2439L80.5983 25.8293L80.1351 24.5399L70.6298 27.9546Z" fill="#FCDEDE"/>
</svg>
