<svg width="295" height="181" viewBox="0 0 295 181" fill="none" xmlns="http://www.w3.org/2000/svg">
<path d="M109.45 58.84C110.84 36.4399 108.29 -4.29005 150.4 1.10995C195.53 6.87995 182.62 59.66 182.62 59.66L109.45 58.84Z" fill="#8F3535"/>
<path d="M138.51 45.3799C148.661 45.3799 156.89 37.1509 156.89 26.9999C156.89 16.8489 148.661 8.61987 138.51 8.61987C128.359 8.61987 120.13 16.8489 120.13 26.9999C120.13 37.1509 128.359 45.3799 138.51 45.3799Z" fill="white"/>
<path d="M140.93 8.64996C132.22 7.16996 122.93 13.5799 122 20.0799L156.51 23.26C155.29 15.85 147.83 9.82996 140.93 8.64996Z" fill="#8F3535"/>
<path d="M152.58 26.5398C152.33 31.3498 149.71 35.1198 146.73 34.9598C143.75 34.7998 141.53 30.7898 141.73 25.9598C141.93 21.1298 144.6 17.3798 147.58 17.5398C150.56 17.6998 152.82 21.7398 152.58 26.5398Z" fill="#8F3535"/>
<path d="M138.51 46.3799C134.677 46.3799 130.93 45.2433 127.743 43.1138C124.556 40.9843 122.072 37.9575 120.605 34.4163C119.138 30.8751 118.755 26.9784 119.502 23.219C120.25 19.4597 122.096 16.0065 124.806 13.2961C127.517 10.5858 130.97 8.74005 134.729 7.99226C138.489 7.24448 142.385 7.62827 145.926 9.09509C149.468 10.5619 152.494 13.0459 154.624 16.2329C156.753 19.42 157.89 23.1669 157.89 26.9999C157.885 32.1381 155.841 37.0644 152.208 40.6978C148.575 44.3311 143.648 46.3746 138.51 46.3799ZM138.51 9.62988C135.072 9.62988 131.712 10.6495 128.853 12.5596C125.995 14.4698 123.767 17.1848 122.452 20.3611C121.137 23.5375 120.793 27.0326 121.465 30.4042C122.136 33.7759 123.792 36.8727 126.224 39.3029C128.656 41.7332 131.753 43.3877 135.125 44.0572C138.498 44.7266 141.992 44.381 145.168 43.064C148.344 41.747 151.057 39.5179 152.966 36.6584C154.874 33.799 155.892 30.4377 155.89 26.9999C155.885 22.393 154.052 17.9764 150.793 14.7198C147.535 11.4631 143.117 9.63253 138.51 9.62988Z" fill="#EE5858"/>
<path opacity="0.3" d="M177.49 58.2799H177.37C177.306 58.2659 177.245 58.239 177.191 58.201C177.138 58.1629 177.092 58.1145 177.058 58.0585C177.023 58.0025 177 57.9401 176.99 57.8751C176.98 57.81 176.984 57.7437 177 57.6799C177 57.5499 180.22 43.9899 176.91 30.2799C176.878 30.1473 176.9 30.0075 176.972 29.8912C177.043 29.775 177.157 29.6918 177.29 29.66C177.423 29.6281 177.563 29.6503 177.679 29.7215C177.795 29.7928 177.878 29.9074 177.91 30.04C181.28 44.04 178.03 57.78 178 57.91C177.97 58.0208 177.904 58.118 177.811 58.1854C177.718 58.2528 177.605 58.2861 177.49 58.2799Z" fill="white"/>
<path opacity="0.3" d="M174.7 22.76C174.604 22.7588 174.51 22.7311 174.429 22.6799C174.348 22.6287 174.283 22.5561 174.24 22.47C172.997 19.7228 171.404 17.148 169.5 14.81C169.417 14.7076 169.378 14.5767 169.391 14.4456C169.404 14.3145 169.469 14.1939 169.57 14.11C169.621 14.0674 169.68 14.0354 169.743 14.0158C169.807 13.9963 169.874 13.9896 169.94 13.9961C170.006 14.0026 170.07 14.0222 170.128 14.0538C170.187 14.0854 170.238 14.1282 170.28 14.18C172.231 16.5858 173.868 19.2305 175.15 22.05C175.179 22.1089 175.195 22.173 175.198 22.2383C175.202 22.3037 175.192 22.3691 175.169 22.4306C175.147 22.4922 175.113 22.5486 175.068 22.5966C175.023 22.6445 174.97 22.6831 174.91 22.71C174.844 22.7406 174.773 22.7576 174.7 22.76Z" fill="white"/>
<path d="M15.73 163.92H15.36C14.0339 163.883 12.7769 163.32 11.8655 162.356C10.9541 161.393 10.4629 160.106 10.5 158.78C10.5371 157.454 11.0995 156.197 12.0635 155.285C13.0274 154.374 14.3139 153.883 15.64 153.92H15.73C18.62 153.92 25.57 150.41 40.11 127.49C40.496 126.881 41.009 126.363 41.6139 125.971C42.2188 125.579 42.9012 125.323 43.6145 125.219C44.3278 125.116 45.0551 125.168 45.7464 125.371C46.4378 125.575 47.0769 125.926 47.62 126.4C59.0386 136.216 71.492 144.76 84.76 151.88C85.374 152.159 85.9252 152.56 86.3803 153.058C86.8354 153.556 87.1851 154.14 87.4083 154.777C87.6315 155.413 87.7236 156.089 87.6791 156.762C87.6345 157.435 87.4542 158.092 87.149 158.693C86.8439 159.295 86.4201 159.828 85.9033 160.262C85.3865 160.695 84.7873 161.02 84.1419 161.216C83.4964 161.412 82.818 161.475 82.1474 161.402C81.4768 161.329 80.828 161.12 80.24 160.79C67.9087 154.237 56.2525 146.487 45.44 137.65C33.25 156 24.21 163.92 15.73 163.92Z" fill="#8F3535"/>
<path d="M46.67 125.5H46.24C45.4542 125.386 44.7456 124.965 44.2695 124.33C43.7934 123.694 43.5886 122.896 43.7 122.11C44.41 117.11 43.53 98.48 37.22 83.98C36.9402 83.3392 36.8929 82.6208 37.0864 81.9489C37.28 81.2769 37.7022 80.6937 38.28 80.3C51.98 70.97 81.16 69.85 82.4 69.81C82.794 69.7969 83.1867 69.8615 83.5557 70.0001C83.9247 70.1387 84.2628 70.3487 84.5506 70.618C84.8385 70.8873 85.0705 71.2106 85.2334 71.5696C85.3963 71.9285 85.4869 72.316 85.5 72.71C85.5132 73.104 85.4486 73.4967 85.3099 73.8657C85.1713 74.2347 84.9614 74.5728 84.6921 74.8606C84.4228 75.1485 84.0994 75.3805 83.7405 75.5434C83.3815 75.7063 82.994 75.7969 82.6 75.81C82.33 75.81 56.82 76.81 43.72 84.01C49.3 98.45 50.57 116.44 49.64 122.95C49.5323 123.66 49.1733 124.308 48.6282 124.776C48.0832 125.244 47.3884 125.501 46.67 125.5Z" fill="#8F3535"/>
<path d="M51.71 121.62C49.71 116.91 40.71 117.44 35.44 121.48C32.62 123.63 28.8 130.12 28.44 132.48C28.32 133.041 28.3379 133.622 28.4924 134.174C28.6468 134.727 28.9331 135.233 29.3266 135.65C29.7201 136.068 30.2091 136.383 30.7514 136.569C31.2938 136.755 31.8733 136.807 32.44 136.72C35.89 136.42 40.62 131.41 40.62 131.41C37.47 134.5 41.54 136.68 47.62 132.21C50.94 129.72 53.94 126.89 51.71 121.62Z" fill="#EE5858"/>
<path d="M223.71 60.1598C223.664 60.1702 223.616 60.1702 223.57 60.1598C223.506 60.1427 223.447 60.1128 223.395 60.072C223.343 60.0311 223.3 59.9802 223.268 59.9223C223.236 59.8644 223.216 59.8007 223.21 59.7349C223.203 59.6692 223.21 59.6029 223.23 59.5399C224.56 54.8999 226.01 52.0699 227.92 50.5399C227.621 49.4643 227.677 48.3209 228.08 47.2798C228.546 46.0646 229.369 45.0188 230.44 44.2798C230.149 43.9652 229.942 43.5819 229.839 43.1658C229.736 42.7496 229.74 42.3141 229.85 41.8998C230.212 40.6471 230.961 39.541 231.99 38.7398C231.619 38.3248 231.416 37.7865 231.42 37.2299C231.42 34.2299 236.93 29.7098 243.18 28.8498C243.313 28.8313 243.447 28.8662 243.554 28.9468C243.661 29.0274 243.731 29.1472 243.75 29.2798C243.769 29.4124 243.734 29.547 243.653 29.6539C243.572 29.7608 243.453 29.8313 243.32 29.8498C237.38 30.6598 232.4 34.9599 232.42 37.2299C232.418 37.5683 232.547 37.8944 232.78 38.1399C234.125 37.2276 235.639 36.5925 237.232 36.2714C238.825 35.9503 240.467 35.9498 242.06 36.2698C245.13 36.8598 246.38 37.5098 246.24 38.4398C245.96 40.1898 239.43 40.5599 235.05 40.0399C234.265 39.9686 233.502 39.748 232.8 39.3899C231.857 40.061 231.156 41.0184 230.8 42.1198C230.714 42.4113 230.715 42.7214 230.802 43.0125C230.889 43.3036 231.058 43.5632 231.29 43.7599C233.15 42.7599 235.76 42.3998 239.21 43.1598C243.74 44.1598 243.91 44.7099 244.02 45.0399C244.055 45.1564 244.058 45.2804 244.028 45.3985C243.998 45.5165 243.937 45.6242 243.85 45.7098C242.9 46.7098 235.95 46.2398 232.46 45.3798C232.039 45.2838 231.632 45.1324 231.25 44.9298C230.217 45.5575 229.422 46.5109 228.99 47.6399C228.701 48.3703 228.622 49.1667 228.76 49.9398C228.938 49.8334 229.122 49.7365 229.31 49.6498C231.38 48.6498 233.88 48.8298 236.97 50.1498C238.97 51.0198 239.97 51.7998 240.07 52.5898C240.074 52.7925 240.024 52.9926 239.923 53.1687C239.823 53.3448 239.677 53.4903 239.5 53.5898C237.97 54.5898 232.63 54.4498 229.85 52.9698C229.211 52.6225 228.678 52.1073 228.31 51.4799C226.68 52.9799 225.36 55.6498 224.16 59.8398C224.124 59.9307 224.062 60.0093 223.982 60.066C223.902 60.1227 223.808 60.1553 223.71 60.1598ZM229.13 50.8298C229.408 51.3472 229.833 51.7714 230.35 52.0498C232.61 53.2498 237.05 53.5198 238.71 52.8498C239.05 52.7098 239.1 52.5998 239.1 52.5998C239.1 52.5998 239.05 52.0398 236.6 50.9898C233.8 49.7898 231.6 49.6198 229.77 50.4698C229.549 50.5762 229.336 50.6964 229.13 50.8298ZM232.47 44.2599L232.72 44.3298C235.977 45.0803 239.328 45.3332 242.66 45.0798C241.478 44.6414 240.26 44.3068 239.02 44.0798C236.866 43.4964 234.589 43.559 232.47 44.2599ZM233.73 38.6399C234.192 38.8053 234.672 38.9128 235.16 38.9598C240.16 39.5498 244.55 38.8599 245.16 38.2299C244.99 38.0799 244.32 37.6498 241.84 37.1798C239.049 36.6233 236.151 37.145 233.73 38.6399Z" fill="#8F3535"/>
<path d="M93.53 162.25C94.19 162.04 93.97 161.4 93.23 161.4H79.69C53.91 158.67 35.9 162.33 47.25 163.19C58.6 164.05 46.45 163.87 38.16 167.01C29.87 170.15 99.81 170.94 106.16 167.01C112 163.39 84.39 165.18 93.53 162.25Z" fill="#8F3535"/>
<path d="M190.47 166.24L72.67 162.33L67.78 48.1099L206.89 51.2199L190.47 166.24Z" fill="#EE5858"/>
<path d="M109.45 164.05C109.324 164.05 109.203 164.003 109.11 163.918C109.017 163.833 108.96 163.715 108.95 163.59L99.5101 48.8699C99.5017 48.7378 99.545 48.6076 99.6308 48.5068C99.7166 48.406 99.8383 48.3426 99.9701 48.3299C100.102 48.3239 100.23 48.3681 100.331 48.4535C100.431 48.5389 100.495 48.6591 100.51 48.7899L110 163.51C110.006 163.576 109.998 163.642 109.978 163.704C109.958 163.767 109.925 163.825 109.882 163.876C109.84 163.926 109.787 163.967 109.729 163.997C109.67 164.027 109.606 164.045 109.54 164.05H109.45Z" fill="#8F3535"/>
<path d="M190.47 166.24L222.13 161.42L232.1 55.21L206.89 51.22L190.47 166.24Z" fill="#EE5858"/>
<path opacity="0.2" d="M190.47 166.24L222.13 161.42L232.1 55.21L206.89 51.22L190.47 166.24Z" fill="#191C1F"/>
<path d="M82.73 140.32L79.83 72.45C79.7585 70.7733 80.0316 69.0998 80.6326 67.5329C81.2336 65.9661 82.1496 64.5391 83.324 63.3403C84.4984 62.1416 85.9063 61.1964 87.4605 60.5634C89.0147 59.9304 90.6822 59.6229 92.36 59.66L180.42 61.66C182.154 61.6991 183.86 62.1055 185.425 62.8521C186.991 63.5988 188.38 64.6689 189.502 65.9919C190.624 67.3148 191.452 68.8605 191.933 70.527C192.413 72.1935 192.535 73.9429 192.29 75.66L182.53 144C182.108 146.993 180.595 149.725 178.283 151.672C175.971 153.619 173.021 154.644 170 154.55L94.61 152.05C91.5151 151.954 88.5708 150.692 86.3675 148.517C84.1641 146.341 82.8648 143.413 82.73 140.32Z" fill="#8F3535"/>
<path d="M92.25 80.49L105.87 80.92L105.76 84.43L97.23 84.16L97.15 86.78L105.06 87.03L104.95 90.39L97.04 90.13L96.94 93.38L105.71 93.66L105.59 97.38L91.72 96.94L92.25 80.49Z" fill="white"/>
<path d="M108.4 97.47L108.92 81.02L117.4 81.29C118.616 81.2838 119.826 81.4591 120.99 81.81C121.815 82.0863 122.521 82.6369 122.99 83.37C123.338 83.904 123.571 84.5038 123.677 85.132C123.783 85.7603 123.758 86.4036 123.604 87.0219C123.45 87.6401 123.171 88.2201 122.783 88.7256C122.395 89.231 121.907 89.6513 121.35 89.96C120.782 90.2528 120.171 90.4552 119.54 90.56C120.005 90.7098 120.446 90.9253 120.85 91.2C121.142 91.471 121.403 91.7727 121.63 92.1C121.888 92.4113 122.115 92.7461 122.31 93.1L124.62 97.95L118.88 97.76L116.32 92.65C116.117 92.162 115.818 91.72 115.44 91.35C115.081 91.0905 114.653 90.9442 114.21 90.93H113.76L113.55 97.6L108.4 97.47ZM113.82 87.85L115.96 87.92C116.414 87.8924 116.866 87.8289 117.31 87.73C117.645 87.6791 117.948 87.5042 118.16 87.24C118.376 86.9734 118.499 86.6432 118.51 86.3C118.529 86.0714 118.497 85.8414 118.415 85.6269C118.334 85.4123 118.206 85.2187 118.04 85.06C117.482 84.6995 116.823 84.5277 116.16 84.57L113.92 84.5L113.82 87.85Z" fill="white"/>
<path d="M126.28 98.0001L126.8 81.55L135.27 81.8201C136.486 81.8129 137.696 81.9882 138.86 82.3401C139.687 82.6135 140.394 83.1647 140.86 83.9001C141.368 84.7013 141.606 85.6438 141.54 86.5901C141.543 87.3881 141.33 88.1721 140.923 88.8587C140.516 89.5454 139.931 90.1091 139.23 90.4901C138.661 90.7812 138.05 90.9835 137.42 91.0901C137.882 91.2391 138.32 91.4547 138.72 91.7301C139.019 91.9931 139.284 92.292 139.51 92.6201C139.766 92.9328 139.993 93.2674 140.19 93.6201L142.5 98.4601L136.76 98.2801L134.2 93.1701C133.995 92.6829 133.696 92.241 133.32 91.8701C132.963 91.6002 132.528 91.453 132.08 91.4501H131.64L131.42 98.1301L126.28 98.0001ZM131.69 88.3801L133.84 88.4401C134.295 88.4228 134.747 88.3625 135.19 88.2601C135.523 88.2106 135.823 88.0351 136.03 87.7701C136.254 87.5079 136.378 87.1749 136.38 86.83C136.402 86.6021 136.372 86.3721 136.292 86.1574C136.212 85.9427 136.085 85.7487 135.92 85.5901C135.362 85.2205 134.697 85.0481 134.03 85.1001L131.8 85.0301L131.69 88.3801Z" fill="white"/>
<path d="M143.32 90.36C143.243 89.2121 143.421 88.0613 143.841 86.9904C144.262 85.9194 144.914 84.9549 145.752 84.1662C146.589 83.3774 147.591 82.7839 148.685 82.4284C149.779 82.0729 150.939 81.9641 152.08 82.11C153.232 82.0718 154.379 82.2655 155.455 82.6795C156.53 83.0935 157.511 83.7194 158.34 84.52C159.08 85.3717 159.638 86.365 159.982 87.4395C160.326 88.5139 160.448 89.647 160.34 90.77C160.348 92.4037 159.964 94.0155 159.22 95.47C158.546 96.6601 157.538 97.6266 156.32 98.25C154.885 98.9361 153.297 99.2392 151.71 99.13C150.128 99.1433 148.563 98.8016 147.13 98.13C145.91 97.4682 144.915 96.4588 144.27 95.23C143.514 93.7241 143.185 92.0396 143.32 90.36ZM148.4 90.54C148.25 91.8005 148.536 93.0744 149.21 94.15C149.525 94.5019 149.908 94.7868 150.336 94.9876C150.764 95.1884 151.228 95.301 151.7 95.3187C152.172 95.3365 152.643 95.2589 153.084 95.0908C153.526 94.9226 153.929 94.6673 154.27 94.34C155.011 93.2174 155.363 91.8821 155.27 90.54C155.404 89.3347 155.11 88.1206 154.44 87.11C154.137 86.7605 153.762 86.4806 153.341 86.289C152.92 86.0975 152.463 85.9989 152 86C151.533 85.9664 151.065 86.039 150.63 86.2121C150.196 86.3853 149.806 86.6547 149.49 87C148.733 88.0207 148.348 89.2701 148.4 90.54Z" fill="white"/>
<path d="M162.91 99.21L163.43 82.75L171.9 83.02C173.116 83.018 174.325 83.1932 175.49 83.54C176.313 83.8206 177.018 84.3701 177.49 85.1C177.995 85.9024 178.233 86.844 178.17 87.79C178.175 88.5898 177.962 89.3758 177.556 90.0644C177.149 90.7529 176.563 91.3182 175.86 91.7C175.288 91.983 174.679 92.1817 174.05 92.29C174.513 92.4422 174.951 92.6612 175.35 92.94C175.649 93.203 175.914 93.502 176.14 93.83C176.398 94.1412 176.625 94.476 176.82 94.83L179.13 99.68L173.39 99.5L170.83 94.38C170.626 93.8952 170.327 93.4565 169.95 93.09C169.591 92.8215 169.158 92.6713 168.71 92.66H168.27L168.05 99.34L162.91 99.21ZM168.32 89.58L170.47 89.65C170.925 89.6327 171.377 89.5725 171.82 89.47C172.151 89.4167 172.451 89.242 172.66 88.98C172.896 88.7013 173.021 88.3451 173.01 87.98C173.032 87.7535 173.001 87.5251 172.922 87.312C172.842 87.0989 172.715 86.9067 172.55 86.75C171.992 86.3805 171.327 86.208 170.66 86.26L168.43 86.19L168.32 89.58Z" fill="white"/>
<path d="M171 127.16C170.812 127.164 170.626 127.127 170.454 127.053C170.281 126.979 170.127 126.869 170 126.73L161.44 117.36L152.2 125.8C151.944 126.035 151.605 126.158 151.258 126.143C150.912 126.128 150.585 125.976 150.35 125.72L141.79 116.35L132.55 124.79C132.294 125.025 131.955 125.148 131.608 125.133C131.262 125.118 130.935 124.966 130.7 124.71L122.13 115.34L112.9 123.78C112.765 123.902 112.607 123.995 112.435 124.054C112.263 124.112 112.081 124.135 111.9 124.12C111.553 124.099 111.227 123.945 110.99 123.69L102.43 114.33L93.2 122.76C92.9423 122.995 92.602 123.119 92.2535 123.104C91.905 123.089 91.5766 122.936 91.34 122.68C91.2233 122.553 91.1329 122.404 91.0741 122.242C91.0154 122.08 90.9894 121.908 90.9978 121.736C91.0062 121.564 91.0487 121.395 91.1229 121.24C91.1971 121.084 91.3015 120.945 91.43 120.83L101.63 111.5C101.888 111.265 102.228 111.141 102.577 111.156C102.925 111.171 103.253 111.324 103.49 111.58L112.05 120.95L121.28 112.51C121.542 112.28 121.882 112.158 122.23 112.17C122.578 112.189 122.905 112.343 123.14 112.6L131.7 121.97L140.94 113.53C141.066 113.413 141.214 113.321 141.376 113.262C141.538 113.202 141.71 113.175 141.882 113.183C142.054 113.19 142.223 113.232 142.379 113.305C142.535 113.379 142.674 113.482 142.79 113.61L151.35 122.98L160.59 114.54C160.846 114.305 161.185 114.182 161.532 114.197C161.878 114.212 162.205 114.364 162.44 114.62L172 125C172.171 125.191 172.282 125.427 172.321 125.681C172.36 125.934 172.324 126.193 172.218 126.426C172.112 126.66 171.94 126.857 171.724 126.994C171.508 127.132 171.256 127.203 171 127.2V127.16Z" fill="white"/>
<path d="M12.75 168.67L6.49003 165.68L0.910034 138.51L3.94003 135.18L12.75 168.67Z" fill="#EE5858"/>
<path d="M12.7501 168.67L21.0601 163.81L13.9401 141.43L3.94006 135.18L12.7501 168.67Z" fill="#EE5858"/>
<path opacity="0.2" d="M12.7501 168.67L21.0601 163.81L13.9401 141.43L3.94006 135.18L12.7501 168.67Z" fill="#191C1F"/>
<path d="M149 173.61H148.31C146.984 173.574 145.726 173.013 144.814 172.05C143.902 171.087 143.409 169.801 143.445 168.475C143.481 167.149 144.042 165.891 145.005 164.979C145.968 164.067 147.254 163.574 148.58 163.61C156.28 163.86 172.58 159.13 181.9 150.09C182.463 149.538 183.148 149.127 183.9 148.89C199.69 144.15 205.56 153.72 205.8 154.13L197.2 159.22C197.23 159.284 197.267 159.344 197.31 159.4C197.22 159.27 194.98 156.4 187.86 158.16C176.17 168.82 158.23 173.61 149 173.61Z" fill="#8F3535"/>
<path d="M148.39 180.25L130.18 179.11L128.75 145.53L153.22 146.44L148.39 180.25Z" fill="#EE5858"/>
<path d="M148.39 180.25L152.65 176.01L155.29 155.08L153.22 146.44L148.39 180.25Z" fill="#EE5858"/>
<path opacity="0.2" d="M148.39 180.25L152.65 176.01L155.29 155.08L153.22 146.44L148.39 180.25Z" fill="#191C1F"/>
<path d="M253.91 167.54C253.256 167.539 252.621 167.325 252.1 166.93C241.7 159.03 227.65 145 222.26 131.47C222.179 131.274 222.122 131.069 222.09 130.86C219.46 115.22 216.95 82.31 216.84 80.92C216.81 80.526 216.859 80.1301 216.982 79.7548C217.106 79.3795 217.302 79.0322 217.56 78.7327C218.08 78.1279 218.819 77.7546 219.615 77.695C220.411 77.6353 221.197 77.8941 221.802 78.4145C222.407 78.9349 222.78 79.6743 222.84 80.4699C222.84 80.7999 225.41 114.03 227.97 129.54C233.35 142.7 247.97 156.21 255.75 162.15C256.251 162.53 256.62 163.058 256.805 163.659C256.989 164.26 256.98 164.904 256.779 165.5C256.578 166.095 256.195 166.613 255.683 166.979C255.172 167.345 254.559 167.541 253.93 167.54H253.91Z" fill="#8F3535"/>
<path d="M267.78 169.05C265.46 169.05 262.83 168 259.96 165.93C259.316 165.463 258.883 164.759 258.757 163.974C258.632 163.188 258.823 162.384 259.29 161.74C259.757 161.095 260.46 160.663 261.246 160.537C262.032 160.412 262.836 160.603 263.48 161.07C265.96 162.86 267.31 163.07 267.78 163.07C268.576 163.07 269.339 163.386 269.901 163.949C270.464 164.511 270.78 165.274 270.78 166.07C270.78 166.866 270.464 167.629 269.901 168.191C269.339 168.754 268.576 169.07 267.78 169.07V169.05Z" fill="#8F3535"/>
<path d="M260.8 165.84C264.01 156.31 277.17 158.19 281.71 159.61C285.588 160.736 289.308 162.348 292.78 164.41C295.23 166.01 295.27 168.7 292 170.23C288 172.11 277.84 170.44 277.84 170.44C283.08 172.73 277.84 176.44 268.63 172.8C265.64 171.62 259.67 169.34 260.8 165.84Z" fill="#EE5858"/>
<path d="M228.86 85C227.67 93.1 220.96 99.07 215.5 98.27C210.04 97.47 209.82 90.27 211.01 82.13C212.2 73.99 214.36 68.13 219.82 68.93C225.28 69.73 230.05 76.93 228.86 85Z" fill="#8F3535"/>
<path d="M96.8801 52.7001C97.3329 52.7001 97.7001 52.3329 97.7001 51.8801C97.7001 51.4272 97.3329 51.0601 96.8801 51.0601C96.4272 51.0601 96.0601 51.4272 96.0601 51.8801C96.0601 52.3329 96.4272 52.7001 96.8801 52.7001Z" fill="#8F3535"/>
<path d="M105.21 57.78C105.21 57.9421 105.162 58.1007 105.072 58.2355C104.982 58.3704 104.854 58.4755 104.704 58.5375C104.554 58.5996 104.389 58.6159 104.23 58.5842C104.071 58.5526 103.925 58.4745 103.81 58.3598C103.695 58.2451 103.617 58.099 103.586 57.9399C103.554 57.7809 103.57 57.616 103.632 57.4662C103.694 57.3163 103.8 57.1883 103.934 57.0982C104.069 57.0081 104.228 56.96 104.39 56.96C104.607 56.96 104.816 57.0464 104.97 57.2001C105.124 57.3539 105.21 57.5625 105.21 57.78Z" fill="#8F3535"/>
<path d="M106.13 154.68C106.13 154.842 106.082 155.001 105.992 155.136C105.902 155.27 105.774 155.376 105.624 155.438C105.474 155.5 105.309 155.516 105.15 155.484C104.991 155.453 104.845 155.375 104.73 155.26C104.615 155.145 104.537 154.999 104.506 154.84C104.474 154.681 104.49 154.516 104.552 154.366C104.614 154.216 104.72 154.088 104.854 153.998C104.989 153.908 105.148 153.86 105.31 153.86C105.527 153.86 105.736 153.946 105.89 154.1C106.044 154.254 106.13 154.463 106.13 154.68Z" fill="#8F3535"/>
<path d="M113.64 160.59C113.64 160.752 113.592 160.911 113.502 161.045C113.412 161.18 113.284 161.285 113.134 161.348C112.984 161.41 112.819 161.426 112.66 161.394C112.501 161.363 112.355 161.284 112.24 161.17C112.125 161.055 112.047 160.909 112.016 160.75C111.984 160.591 112 160.426 112.062 160.276C112.124 160.126 112.23 159.998 112.364 159.908C112.499 159.818 112.658 159.77 112.82 159.77C113.037 159.77 113.246 159.856 113.4 160.01C113.554 160.164 113.64 160.372 113.64 160.59Z" fill="#8F3535"/>
</svg>
